<svg width="224" height="110" viewBox="0 0 224 110" fill="none" xmlns="http://www.w3.org/2000/svg">
<g filter="url(#filter0_d_0_1)">
<g filter="url(#filter1_d_0_1)">
<path fill-rule="evenodd" clip-rule="evenodd" d="M15.2205 32.0729C15.2205 19.8824 25.1028 10 37.2934 10H186.373C198.564 10 208.446 19.8824 208.446 32.0729C208.446 44.2634 198.564 54.1458 186.373 54.1458H37.2934C25.1028 54.1458 15.2205 44.2634 15.2205 32.0729Z" fill="url(#paint0_linear_0_1)"/>
</g>
<path d="M32.48 38.2C31.88 38.2 31.3733 38.1067 30.96 37.92C30.5467 37.7333 30.2333 37.4533 30.02 37.08C29.8067 36.6933 29.7 36.2133 29.7 35.64V27.04H32.7V35.28C32.7 35.5333 32.7533 35.72 32.86 35.84C32.98 35.96 33.16 36.02 33.4 36.02C33.5067 36.02 33.62 36.0067 33.74 35.98C33.86 35.9533 33.9733 35.92 34.08 35.88L34.36 37.8C34.1067 37.9333 33.82 38.0333 33.5 38.1C33.18 38.1667 32.84 38.2 32.48 38.2ZM39.8983 38.26C39.1116 38.26 38.3183 38.1733 37.5183 38C36.7316 37.8267 36.0316 37.58 35.4183 37.26L36.2583 34.88C36.5249 35.0267 36.8449 35.18 37.2183 35.34C37.5916 35.5 37.9983 35.6333 38.4383 35.74C38.8783 35.8467 39.3249 35.9 39.7783 35.9C40.3116 35.9 40.7116 35.8267 40.9783 35.68C41.2583 35.52 41.3983 35.28 41.3983 34.96C41.3983 34.72 41.3049 34.5267 41.1183 34.38C40.9449 34.22 40.6849 34.0733 40.3383 33.94C39.9916 33.7933 39.5783 33.64 39.0983 33.48C38.3916 33.2267 37.7849 32.9533 37.2783 32.66C36.7716 32.3667 36.3783 32.0067 36.0983 31.58C35.8316 31.1533 35.6983 30.62 35.6983 29.98C35.6983 29.2467 35.8849 28.6467 36.2583 28.18C36.6316 27.7133 37.1583 27.3667 37.8383 27.14C38.5183 26.9 39.3116 26.78 40.2183 26.78C40.9649 26.78 41.6383 26.84 42.2383 26.96C42.8383 27.08 43.3049 27.2333 43.6383 27.42V29.78C43.4116 29.6733 43.1116 29.5667 42.7383 29.46C42.3783 29.3533 41.9849 29.2667 41.5583 29.2C41.1449 29.12 40.7449 29.08 40.3583 29.08C39.8116 29.08 39.3983 29.1533 39.1183 29.3C38.8383 29.4467 38.6983 29.6533 38.6983 29.92C38.6983 30.1333 38.7916 30.3133 38.9783 30.46C39.1783 30.6067 39.4649 30.7467 39.8383 30.88C40.2116 31 40.6583 31.1533 41.1783 31.34C41.8716 31.58 42.4583 31.8467 42.9383 32.14C43.4183 32.4333 43.7783 32.7933 44.0183 33.22C44.2716 33.6467 44.3983 34.1733 44.3983 34.8C44.3983 35.4 44.2583 35.9667 43.9783 36.5C43.7116 37.02 43.2516 37.4467 42.5983 37.78C41.9449 38.1 41.0449 38.26 39.8983 38.26ZM34.5842 25.52V24.26L36.6042 23.42H43.7442V25.52H34.5842ZM41.1642 21.98V18.26H43.7642V21.98H41.1642ZM52.9498 38.2C52.0032 38.2 51.2365 38.02 50.6498 37.66C50.0765 37.3 49.6698 36.84 49.4298 36.28H49.2698L48.9498 38H46.6698V27.04H49.6698V32.28C49.6698 33.04 49.7565 33.6667 49.9298 34.16C50.1032 34.64 50.3565 35 50.6898 35.24C51.0232 35.48 51.4232 35.6 51.8898 35.6C52.4498 35.6 52.8765 35.4333 53.1698 35.1C53.4632 34.7667 53.6098 34.2333 53.6098 33.5V27.04H56.6098V34.16C56.6098 35.0267 56.4698 35.76 56.1898 36.36C55.9232 36.96 55.5165 37.42 54.9698 37.74C54.4232 38.0467 53.7498 38.2 52.9498 38.2ZM63.5995 38.2C62.4129 38.2 61.4862 37.96 60.8195 37.48C60.1662 36.9867 59.7062 36.3067 59.4395 35.44C59.1862 34.56 59.0595 33.54 59.0595 32.38C59.0595 31.0867 59.1862 30.0333 59.4395 29.22C59.6929 28.4067 60.0729 27.8067 60.5795 27.42C61.0995 27.0333 61.7329 26.84 62.4795 26.84C62.9462 26.84 63.3529 26.9333 63.6995 27.12C64.0595 27.2933 64.3462 27.62 64.5595 28.1H64.6395C64.8262 27.6067 65.1329 27.2733 65.5595 27.1C65.9862 26.9267 66.4462 26.84 66.9395 26.84C67.8595 26.84 68.5462 27.0867 68.9995 27.58C69.4662 28.0733 69.6995 28.7933 69.6995 29.74V38H66.6995V30.3C66.6995 29.8867 66.6329 29.6067 66.4995 29.46C66.3662 29.3133 66.1862 29.24 65.9595 29.24C65.7062 29.24 65.5129 29.3133 65.3795 29.46C65.2595 29.6067 65.1795 29.8533 65.1395 30.2H63.9595C63.9062 29.8133 63.8062 29.56 63.6595 29.44C63.5129 29.3067 63.3395 29.24 63.1395 29.24C62.8062 29.24 62.5462 29.48 62.3595 29.96C62.1862 30.44 62.0995 31.2533 62.0995 32.4C62.0995 33.1467 62.1529 33.7867 62.2595 34.32C62.3795 34.84 62.5795 35.24 62.8595 35.52C63.1395 35.7867 63.5395 35.92 64.0595 35.92C64.2195 35.92 64.3662 35.9133 64.4995 35.9C64.6329 35.8733 64.7462 35.84 64.8395 35.8L65.1395 37.94C64.9262 38.0333 64.6929 38.1 64.4395 38.14C64.1862 38.18 63.9062 38.2 63.5995 38.2ZM76.2655 38.26C75.4788 38.26 74.6855 38.1733 73.8855 38C73.0988 37.8267 72.3988 37.58 71.7855 37.26L72.6255 34.88C72.8921 35.0267 73.2121 35.18 73.5855 35.34C73.9588 35.5 74.3655 35.6333 74.8055 35.74C75.2455 35.8467 75.6921 35.9 76.1455 35.9C76.6788 35.9 77.0788 35.8267 77.3455 35.68C77.6255 35.52 77.7655 35.28 77.7655 34.96C77.7655 34.72 77.6721 34.5267 77.4855 34.38C77.3121 34.22 77.0521 34.0733 76.7055 33.94C76.3588 33.7933 75.9455 33.64 75.4655 33.48C74.7588 33.2267 74.1521 32.9533 73.6455 32.66C73.1388 32.3667 72.7455 32.0067 72.4655 31.58C72.1988 31.1533 72.0655 30.62 72.0655 29.98C72.0655 29.2467 72.2521 28.6467 72.6255 28.18C72.9988 27.7133 73.5255 27.3667 74.2055 27.14C74.8855 26.9 75.6788 26.78 76.5855 26.78C77.3321 26.78 78.0055 26.84 78.6055 26.96C79.2055 27.08 79.6721 27.2333 80.0055 27.42V29.78C79.7788 29.6733 79.4788 29.5667 79.1055 29.46C78.7455 29.3533 78.3521 29.2667 77.9255 29.2C77.5121 29.12 77.1121 29.08 76.7255 29.08C76.1788 29.08 75.7655 29.1533 75.4855 29.3C75.2055 29.4467 75.0655 29.6533 75.0655 29.92C75.0655 30.1333 75.1588 30.3133 75.3455 30.46C75.5455 30.6067 75.8321 30.7467 76.2055 30.88C76.5788 31 77.0255 31.1533 77.5455 31.34C78.2388 31.58 78.8255 31.8467 79.3055 32.14C79.7855 32.4333 80.1455 32.7933 80.3855 33.22C80.6388 33.6467 80.7655 34.1733 80.7655 34.8C80.7655 35.4 80.6255 35.9667 80.3455 36.5C80.0788 37.02 79.6188 37.4467 78.9655 37.78C78.3121 38.1 77.4121 38.26 76.2655 38.26ZM85.777 38.26C85.097 38.26 84.457 38.18 83.857 38.02C83.257 37.8733 82.697 37.66 82.177 37.38L82.977 35.2C83.2704 35.3733 83.6237 35.5267 84.037 35.66C84.4504 35.7933 84.857 35.86 85.257 35.86C86.0037 35.86 86.597 35.58 87.037 35.02C87.477 34.4467 87.697 33.5933 87.697 32.46C87.697 31.3933 87.477 30.58 87.037 30.02C86.597 29.46 85.9104 29.18 84.977 29.18C84.537 29.18 84.0837 29.2467 83.617 29.38C83.1504 29.5 82.7637 29.6533 82.457 29.84V27.38C82.8704 27.1933 83.337 27.0467 83.857 26.94C84.377 26.8333 84.9304 26.78 85.517 26.78C86.7437 26.78 87.7437 27.0067 88.517 27.46C89.2904 27.9133 89.857 28.5667 90.217 29.42C90.577 30.26 90.757 31.2733 90.757 32.46C90.757 34.3533 90.3237 35.7933 89.457 36.78C88.5904 37.7667 87.3637 38.26 85.777 38.26ZM94.0305 38V33.4H92.8905V31.56H96.7305V35.72H96.8705C97.3105 35.72 97.6838 35.6 97.9905 35.36C98.3105 35.12 98.5505 34.7667 98.7105 34.3C98.8705 33.82 98.9505 33.22 98.9505 32.5C98.9505 31.6733 98.8305 31.02 98.5905 30.54C98.3638 30.0467 98.0238 29.6933 97.5705 29.48C97.1171 29.2667 96.5571 29.16 95.8905 29.16C95.1971 29.16 94.5705 29.26 94.0105 29.46C93.4505 29.6467 92.9505 29.8733 92.5105 30.14V27.64C92.9505 27.4133 93.5038 27.2133 94.1705 27.04C94.8371 26.8667 95.6038 26.78 96.4705 26.78C97.7638 26.78 98.8105 26.9867 99.6105 27.4C100.424 27.8133 101.024 28.44 101.41 29.28C101.797 30.12 101.99 31.1733 101.99 32.44C101.99 33.6267 101.81 34.64 101.45 35.48C101.104 36.3067 100.53 36.9333 99.7305 37.36C98.9438 37.7867 97.8905 38 96.5705 38H94.0305ZM110.542 38V30.88C110.542 30.24 110.369 29.78 110.022 29.5C109.676 29.22 109.142 29.08 108.422 29.08C107.729 29.08 107.049 29.1867 106.382 29.4C105.729 29.6 105.162 29.84 104.682 30.12V27.64C105.069 27.4533 105.616 27.2667 106.322 27.08C107.029 26.88 107.842 26.78 108.762 26.78C109.469 26.78 110.102 26.8667 110.662 27.04C111.236 27.2133 111.649 27.5533 111.902 28.06C112.462 28.2333 112.862 28.5733 113.102 29.08C113.356 29.5733 113.482 30.2133 113.482 31V38H110.542ZM107.262 38.2C106.116 38.2 105.229 37.9267 104.602 37.38C103.989 36.8333 103.682 36.0667 103.682 35.08C103.682 34.0133 104.062 33.16 104.822 32.52C105.596 31.88 106.809 31.4933 108.462 31.36L111.022 31.16V33.32L108.802 33.54C108.002 33.62 107.442 33.78 107.122 34.02C106.816 34.26 106.662 34.58 106.662 34.98C106.662 35.38 106.789 35.68 107.042 35.88C107.309 36.08 107.649 36.18 108.062 36.18C108.222 36.18 108.382 36.1667 108.542 36.14C108.702 36.1 108.849 36.06 108.982 36.02L109.242 37.9C108.989 37.9933 108.689 38.0667 108.342 38.12C107.996 38.1733 107.636 38.2 107.262 38.2ZM111.842 29.22L110.202 27.84C110.669 27.68 111.036 27.48 111.302 27.24C111.569 26.9867 111.709 26.68 111.722 26.32H114.342C114.342 26.7333 114.256 27.1333 114.082 27.52C113.922 27.8933 113.656 28.2267 113.282 28.52C112.922 28.8133 112.442 29.0467 111.842 29.22ZM120.694 38.26C119.067 38.26 117.86 37.8667 117.074 37.08C116.287 36.28 115.894 35.1 115.894 33.54C115.894 33.2733 115.9 32.9533 115.914 32.58C115.94 32.1933 115.974 31.8533 116.014 31.56H120.814V33.46H118.834V33.74C118.834 34.2733 118.9 34.7133 119.034 35.06C119.167 35.3933 119.367 35.64 119.634 35.8C119.914 35.96 120.26 36.04 120.674 36.04C121.127 36.04 121.507 35.94 121.814 35.74C122.134 35.54 122.374 35.2 122.534 34.72C122.707 34.24 122.794 33.58 122.794 32.74C122.794 31.9533 122.7 31.3 122.514 30.78C122.34 30.2467 122.04 29.8467 121.614 29.58C121.2 29.3133 120.627 29.18 119.894 29.18C119.494 29.18 119.08 29.2267 118.654 29.32C118.227 29.4 117.82 29.5067 117.434 29.64C117.06 29.7733 116.734 29.92 116.454 30.08V27.58C116.747 27.42 117.107 27.28 117.534 27.16C117.974 27.04 118.447 26.9467 118.954 26.88C119.46 26.8133 119.96 26.78 120.454 26.78C121.747 26.78 122.787 27.02 123.574 27.5C124.374 27.9667 124.954 28.6333 125.314 29.5C125.687 30.3667 125.874 31.3933 125.874 32.58C125.874 33.7933 125.694 34.8267 125.334 35.68C124.987 36.52 124.434 37.16 123.674 37.6C122.914 38.04 121.92 38.26 120.694 38.26ZM133.129 38.26C131.396 38.26 130.136 37.86 129.349 37.06C128.576 36.2467 128.189 35.0733 128.189 33.54V27.04H131.189V33.7C131.189 34.4067 131.342 34.9467 131.649 35.32C131.969 35.68 132.462 35.86 133.129 35.86C133.796 35.86 134.282 35.68 134.589 35.32C134.909 34.9467 135.069 34.4067 135.069 33.7V27.04H138.069V33.54C138.069 35.0733 137.676 36.2467 136.889 37.06C136.116 37.86 134.862 38.26 133.129 38.26ZM145.225 38.26C143.598 38.26 142.392 37.8667 141.605 37.08C140.818 36.28 140.425 35.1 140.425 33.54C140.425 33.2733 140.432 32.9533 140.445 32.58C140.472 32.1933 140.505 31.8533 140.545 31.56H145.345V33.46H143.365V33.74C143.365 34.2733 143.432 34.7133 143.565 35.06C143.698 35.3933 143.898 35.64 144.165 35.8C144.445 35.96 144.792 36.04 145.205 36.04C145.658 36.04 146.038 35.94 146.345 35.74C146.665 35.54 146.905 35.2 147.065 34.72C147.238 34.24 147.325 33.58 147.325 32.74C147.325 31.9533 147.232 31.3 147.045 30.78C146.872 30.2467 146.572 29.8467 146.145 29.58C145.732 29.3133 145.158 29.18 144.425 29.18C144.025 29.18 143.612 29.2267 143.185 29.32C142.758 29.4 142.352 29.5067 141.965 29.64C141.592 29.7733 141.265 29.92 140.985 30.08V27.58C141.278 27.42 141.638 27.28 142.065 27.16C142.505 27.04 142.978 26.9467 143.485 26.88C143.992 26.8133 144.492 26.78 144.985 26.78C146.278 26.78 147.318 27.02 148.105 27.5C148.905 27.9667 149.485 28.6333 149.845 29.5C150.218 30.3667 150.405 31.3933 150.405 32.58C150.405 33.7933 150.225 34.8267 149.865 35.68C149.518 36.52 148.965 37.16 148.205 37.6C147.445 38.04 146.452 38.26 145.225 38.26ZM155.62 38V30.76C155.62 30.2 155.487 29.7933 155.22 29.54C154.967 29.2867 154.547 29.16 153.96 29.16C153.52 29.16 153.114 29.22 152.74 29.34C152.38 29.46 152.04 29.6067 151.72 29.78V27.38C152.014 27.2467 152.427 27.1133 152.96 26.98C153.494 26.8467 154.12 26.78 154.84 26.78C155.574 26.78 156.22 26.8867 156.78 27.1C157.354 27.3133 157.8 27.6733 158.12 28.18C158.454 28.6733 158.62 29.3533 158.62 30.22V38H155.62ZM161.312 38V34.66C161.312 33.82 161.478 33.1733 161.812 32.72C162.145 32.2667 162.618 31.9467 163.232 31.76L163.252 31.68L161.112 30.9V30.38C161.112 29.7267 161.305 29.1267 161.692 28.58C162.078 28.0333 162.645 27.6 163.392 27.28C164.152 26.9467 165.072 26.78 166.152 26.78C167.165 26.78 168.038 26.94 168.772 27.26C169.505 27.5667 170.072 28.0333 170.472 28.66C170.885 29.2733 171.092 30.0533 171.092 31V38H168.092V31.18C168.092 30.5133 167.912 30.0133 167.552 29.68C167.205 29.3467 166.712 29.18 166.072 29.18C165.458 29.18 164.998 29.3133 164.692 29.58C164.385 29.8333 164.218 30.1467 164.192 30.52L165.972 31.34L165.752 32.64C165.272 32.6667 164.912 32.84 164.672 33.16C164.432 33.48 164.312 33.9133 164.312 34.46V38H161.312ZM176.792 38V30.76C176.792 30.2 176.659 29.7933 176.392 29.54C176.139 29.2867 175.719 29.16 175.132 29.16C174.692 29.16 174.286 29.22 173.912 29.34C173.552 29.46 173.212 29.6067 172.892 29.78V27.38C173.186 27.2467 173.599 27.1133 174.132 26.98C174.666 26.8467 175.292 26.78 176.012 26.78C176.746 26.78 177.392 26.8867 177.952 27.1C178.526 27.3133 178.972 27.6733 179.292 28.18C179.626 28.6733 179.792 29.3533 179.792 30.22V38H176.792ZM186.344 38.26C185.557 38.26 184.764 38.1733 183.964 38C183.177 37.8267 182.477 37.58 181.864 37.26L182.704 34.88C182.97 35.0267 183.29 35.18 183.664 35.34C184.037 35.5 184.444 35.6333 184.884 35.74C185.324 35.8467 185.77 35.9 186.224 35.9C186.757 35.9 187.157 35.8267 187.424 35.68C187.704 35.52 187.844 35.28 187.844 34.96C187.844 34.72 187.75 34.5267 187.564 34.38C187.39 34.22 187.13 34.0733 186.784 33.94C186.437 33.7933 186.024 33.64 185.544 33.48C184.837 33.2267 184.23 32.9533 183.724 32.66C183.217 32.3667 182.824 32.0067 182.544 31.58C182.277 31.1533 182.144 30.62 182.144 29.98C182.144 29.2467 182.33 28.6467 182.704 28.18C183.077 27.7133 183.604 27.3667 184.284 27.14C184.964 26.9 185.757 26.78 186.664 26.78C187.41 26.78 188.084 26.84 188.684 26.96C189.284 27.08 189.75 27.2333 190.084 27.42V29.78C189.857 29.6733 189.557 29.5667 189.184 29.46C188.824 29.3533 188.43 29.2667 188.004 29.2C187.59 29.12 187.19 29.08 186.804 29.08C186.257 29.08 185.844 29.1533 185.564 29.3C185.284 29.4467 185.144 29.6533 185.144 29.92C185.144 30.1333 185.237 30.3133 185.424 30.46C185.624 30.6067 185.91 30.7467 186.284 30.88C186.657 31 187.104 31.1533 187.624 31.34C188.317 31.58 188.904 31.8467 189.384 32.14C189.864 32.4333 190.224 32.7933 190.464 33.22C190.717 33.6467 190.844 34.1733 190.844 34.8C190.844 35.4 190.704 35.9667 190.424 36.5C190.157 37.02 189.697 37.4467 189.044 37.78C188.39 38.1 187.49 38.26 186.344 38.26Z" fill="white"/>
</g>
<path d="M155 49.0672V83.1055C155 84.2254 155.897 85.125 156.994 85.125C157.565 85.125 158.118 84.8771 158.498 84.4365L165.984 75.7617L171.249 86.4377C171.965 87.8881 173.705 88.4756 175.137 87.7504C176.569 87.0252 177.149 85.2627 176.433 83.8123L171.294 73.375H181.997C183.103 73.375 184 72.4662 184 71.3463C184 70.768 183.755 70.2172 183.329 69.8316L158.498 47.4791C158.108 47.1303 157.619 46.9375 157.103 46.9375C155.943 46.9375 155 47.8922 155 49.0672Z" fill="#01123F"/>
<path d="M160.45 101.438H157.962C157.916 101.116 157.823 100.83 157.683 100.58C157.543 100.326 157.363 100.11 157.143 99.9318C156.924 99.7538 156.67 99.6174 156.382 99.5227C156.098 99.428 155.789 99.3807 155.456 99.3807C154.854 99.3807 154.329 99.5303 153.882 99.8295C153.435 100.125 153.089 100.557 152.842 101.125C152.596 101.689 152.473 102.375 152.473 103.182C152.473 104.011 152.596 104.708 152.842 105.273C153.092 105.837 153.441 106.263 153.888 106.551C154.335 106.839 154.852 106.983 155.439 106.983C155.768 106.983 156.073 106.939 156.354 106.852C156.638 106.765 156.89 106.638 157.109 106.472C157.329 106.301 157.511 106.095 157.655 105.852C157.803 105.61 157.905 105.333 157.962 105.023L160.45 105.034C160.386 105.568 160.225 106.083 159.967 106.58C159.714 107.072 159.371 107.513 158.939 107.903C158.511 108.29 158 108.597 157.405 108.824C156.814 109.047 156.145 109.159 155.399 109.159C154.361 109.159 153.433 108.924 152.615 108.455C151.801 107.985 151.157 107.305 150.683 106.415C150.214 105.525 149.979 104.447 149.979 103.182C149.979 101.913 150.217 100.833 150.695 99.9432C151.172 99.053 151.82 98.375 152.638 97.9091C153.456 97.4394 154.376 97.2045 155.399 97.2045C156.073 97.2045 156.698 97.2992 157.274 97.4886C157.854 97.678 158.367 97.9545 158.814 98.3182C159.261 98.678 159.625 99.1193 159.905 99.642C160.189 100.165 160.371 100.763 160.45 101.438ZM162.214 109V97.3636H164.675V106.972H169.663V109H162.214ZM173.753 97.3636V109H171.293V97.3636H173.753ZM186.044 101.438H183.555C183.51 101.116 183.417 100.83 183.277 100.58C183.137 100.326 182.957 100.11 182.737 99.9318C182.518 99.7538 182.264 99.6174 181.976 99.5227C181.692 99.428 181.383 99.3807 181.05 99.3807C180.447 99.3807 179.923 99.5303 179.476 99.8295C179.029 100.125 178.682 100.557 178.436 101.125C178.19 101.689 178.067 102.375 178.067 103.182C178.067 104.011 178.19 104.708 178.436 105.273C178.686 105.837 179.035 106.263 179.482 106.551C179.929 106.839 180.446 106.983 181.033 106.983C181.362 106.983 181.667 106.939 181.947 106.852C182.232 106.765 182.483 106.638 182.703 106.472C182.923 106.301 183.105 106.095 183.249 105.852C183.396 105.61 183.499 105.333 183.555 105.023L186.044 105.034C185.98 105.568 185.819 106.083 185.561 106.58C185.307 107.072 184.964 107.513 184.533 107.903C184.105 108.29 183.593 108.597 182.999 108.824C182.408 109.047 181.739 109.159 180.993 109.159C179.955 109.159 179.027 108.924 178.209 108.455C177.394 107.985 176.75 107.305 176.277 106.415C175.807 105.525 175.572 104.447 175.572 103.182C175.572 101.913 175.811 100.833 176.288 99.9432C176.766 99.053 177.413 98.375 178.232 97.9091C179.05 97.4394 179.97 97.2045 180.993 97.2045C181.667 97.2045 182.292 97.2992 182.868 97.4886C183.447 97.678 183.961 97.9545 184.408 98.3182C184.855 98.678 185.218 99.1193 185.499 99.642C185.783 100.165 185.964 100.763 186.044 101.438ZM187.808 109V97.3636H190.268V102.494H190.422L194.609 97.3636H197.558L193.24 102.574L197.609 109H194.666L191.479 104.216L190.268 105.693V109H187.808Z" fill="#01123F"/>
<defs>
<filter id="filter0_d_0_1" x="12.2205" y="7" width="203.225" height="54.1458" filterUnits="userSpaceOnUse" color-interpolation-filters="sRGB">
<feFlood flood-opacity="0" result="BackgroundImageFix"/>
<feColorMatrix in="SourceAlpha" type="matrix" values="0 0 0 0 0 0 0 0 0 0 0 0 0 0 0 0 0 0 127 0" result="hardAlpha"/>
<feOffset dx="2" dy="2"/>
<feGaussianBlur stdDeviation="2.5"/>
<feComposite in2="hardAlpha" operator="out"/>
<feColorMatrix type="matrix" values="0 0 0 0 0 0 0 0 0 0 0 0 0 0 0 0 0 0 0.15 0"/>
<feBlend mode="normal" in2="BackgroundImageFix" result="effect1_dropShadow_0_1"/>
<feBlend mode="normal" in="SourceGraphic" in2="effect1_dropShadow_0_1" result="shape"/>
</filter>
<filter id="filter1_d_0_1" x="0.220459" y="0" width="223.225" height="74.1458" filterUnits="userSpaceOnUse" color-interpolation-filters="sRGB">
<feFlood flood-opacity="0" result="BackgroundImageFix"/>
<feColorMatrix in="SourceAlpha" type="matrix" values="0 0 0 0 0 0 0 0 0 0 0 0 0 0 0 0 0 0 127 0" result="hardAlpha"/>
<feOffset dy="5"/>
<feGaussianBlur stdDeviation="7.5"/>
<feColorMatrix type="matrix" values="0 0 0 0 0 0 0 0 0 0 0 0 0 0 0 0 0 0 0.1 0"/>
<feBlend mode="normal" in2="BackgroundImageFix" result="effect1_dropShadow_0_1"/>
<feBlend mode="normal" in="SourceGraphic" in2="effect1_dropShadow_0_1" result="shape"/>
</filter>
<linearGradient id="paint0_linear_0_1" x1="50.8929" y1="10" x2="137.219" y2="100.829" gradientUnits="userSpaceOnUse">
<stop stop-color="#00C9FF"/>
<stop offset="0.584202" stop-color="#449BFC"/>
<stop offset="1" stop-color="#2C78FF"/>
</linearGradient>
</defs>
</svg>
