<svg width="122" height="178" viewBox="0 0 122 178" fill="none" xmlns="http://www.w3.org/2000/svg">
<g clip-path="url(#clip0_0_1)">
<path d="M49.5 0C38.7234 0 29.5453 6.93574 26.168 16.625H16.5C7.39922 16.625 0 24.0803 0 33.25V116.375C0 125.545 7.39922 133 16.5 133H82.5C91.6008 133 99 125.545 99 116.375V33.25C99 24.0803 91.6008 16.625 82.5 16.625H72.832C69.4547 6.93574 60.2766 0 49.5 0ZM49.5 16.625C51.688 16.625 53.7865 17.5008 55.3336 19.0597C56.8808 20.6186 57.75 22.7329 57.75 24.9375C57.75 27.1421 56.8808 29.2564 55.3336 30.8153C53.7865 32.3742 51.688 33.25 49.5 33.25C47.312 33.25 45.2135 32.3742 43.6664 30.8153C42.1192 29.2564 41.25 27.1421 41.25 24.9375C41.25 22.7329 42.1192 20.6186 43.6664 19.0597C45.2135 17.5008 47.312 16.625 49.5 16.625ZM18.5625 70.6562C18.5625 69.0028 19.2144 67.4171 20.3748 66.2479C21.5352 65.0787 23.109 64.4219 24.75 64.4219C26.391 64.4219 27.9648 65.0787 29.1252 66.2479C30.2856 67.4171 30.9375 69.0028 30.9375 70.6562C30.9375 72.3097 30.2856 73.8954 29.1252 75.0646C27.9648 76.2338 26.391 76.8906 24.75 76.8906C23.109 76.8906 21.5352 76.2338 20.3748 75.0646C19.2144 73.8954 18.5625 72.3097 18.5625 70.6562ZM45.375 66.5H78.375C80.6438 66.5 82.5 68.3703 82.5 70.6562C82.5 72.9422 80.6438 74.8125 78.375 74.8125H45.375C43.1063 74.8125 41.25 72.9422 41.25 70.6562C41.25 68.3703 43.1063 66.5 45.375 66.5ZM18.5625 95.5938C18.5625 93.9403 19.2144 92.3546 20.3748 91.1854C21.5352 90.0162 23.109 89.3594 24.75 89.3594C26.391 89.3594 27.9648 90.0162 29.1252 91.1854C30.2856 92.3546 30.9375 93.9403 30.9375 95.5938C30.9375 97.2472 30.2856 98.8329 29.1252 100.002C27.9648 101.171 26.391 101.828 24.75 101.828C23.109 101.828 21.5352 101.171 20.3748 100.002C19.2144 98.8329 18.5625 97.2472 18.5625 95.5938ZM41.25 95.5938C41.25 93.3078 43.1063 91.4375 45.375 91.4375H78.375C80.6438 91.4375 82.5 93.3078 82.5 95.5938C82.5 97.8797 80.6438 99.75 78.375 99.75H45.375C43.1063 99.75 41.25 97.8797 41.25 95.5938Z" fill="url(#paint0_linear_0_1)"/>
</g>
<g clip-path="url(#clip1_0_1)">
<path d="M86 136.5C91.4559 136.5 96.6883 134.314 100.546 130.422C104.404 126.531 106.571 121.253 106.571 115.75C106.571 110.247 104.404 104.969 100.546 101.078C96.6883 97.1862 91.4559 95 86 95C80.5441 95 75.3117 97.1862 71.4538 101.078C67.5959 104.969 65.4286 110.247 65.4286 115.75C65.4286 121.253 67.5959 126.531 71.4538 130.422C75.3117 134.314 80.5441 136.5 86 136.5ZM70.5714 145.448C58.6786 148.966 50 160.054 50 173.185C50 175.844 52.1375 178 54.7732 178H117.227C119.862 178 122 175.844 122 173.185C122 160.054 113.321 148.966 101.429 145.448V153.684C105.864 154.835 109.143 158.904 109.143 163.734V170.219C109.143 171.645 107.986 172.812 106.571 172.812H104C102.586 172.812 101.429 171.645 101.429 170.219C101.429 168.792 102.586 167.625 104 167.625V163.734C104 160.865 101.702 158.547 98.8571 158.547C96.0125 158.547 93.7143 160.865 93.7143 163.734V167.625C95.1286 167.625 96.2857 168.792 96.2857 170.219C96.2857 171.645 95.1286 172.812 93.7143 172.812H91.1429C89.7286 172.812 88.5714 171.645 88.5714 170.219V163.734C88.5714 158.904 91.85 154.835 96.2857 153.684V144.427C95.3214 144.33 94.3411 144.281 93.3446 144.281H78.6554C77.6589 144.281 76.6786 144.33 75.7143 144.427V155.029C79.4268 156.148 82.1429 159.617 82.1429 163.734C82.1429 168.744 78.1089 172.812 73.1429 172.812C68.1768 172.812 64.1429 168.744 64.1429 163.734C64.1429 159.617 66.8589 156.148 70.5714 155.029V145.448ZM73.1429 167.625C74.1658 167.625 75.1469 167.215 75.8703 166.485C76.5936 165.756 77 164.766 77 163.734C77 162.703 76.5936 161.713 75.8703 160.983C75.1469 160.254 74.1658 159.844 73.1429 159.844C72.1199 159.844 71.1388 160.254 70.4154 160.983C69.6921 161.713 69.2857 162.703 69.2857 163.734C69.2857 164.766 69.6921 165.756 70.4154 166.485C71.1388 167.215 72.1199 167.625 73.1429 167.625Z" fill="#01123F"/>
</g>
<defs>
<linearGradient id="paint0_linear_0_1" x1="49.5" y1="0" x2="49.5" y2="133" gradientUnits="userSpaceOnUse">
<stop stop-color="#00C9FF"/>
<stop offset="0.54" stop-color="#15A2FF"/>
<stop offset="1" stop-color="#2C78FF"/>
</linearGradient>
<clipPath id="clip0_0_1">
<rect width="99" height="133" fill="white"/>
</clipPath>
<clipPath id="clip1_0_1">
<rect width="72" height="83" fill="white" transform="translate(50 95)"/>
</clipPath>
</defs>
</svg>
