<svg width="181" height="212" viewBox="0 0 181 212" fill="none" xmlns="http://www.w3.org/2000/svg">
<path d="M45.8713 0.818182H48.024V7.4304C48.024 8.17282 47.8467 8.82244 47.492 9.37926C47.1407 9.93608 46.6485 10.3703 46.0154 10.6818C45.3824 10.9901 44.6449 11.1442 43.8031 11.1442C42.9579 11.1442 42.2188 10.9901 41.5858 10.6818C40.9527 10.3703 40.4605 9.93608 40.1092 9.37926C39.7579 8.82244 39.5822 8.17282 39.5822 7.4304V0.818182H41.7349V7.24645C41.7349 7.63423 41.8194 7.97893 41.9885 8.28054C42.1608 8.58215 42.4028 8.81913 42.7143 8.99148C43.0259 9.16383 43.3888 9.25 43.8031 9.25C44.2207 9.25 44.5836 9.16383 44.8919 8.99148C45.2034 8.81913 45.4437 8.58215 45.6127 8.28054C45.7851 7.97893 45.8713 7.63423 45.8713 7.24645V0.818182ZM55.3185 3.74645C55.2788 3.34541 55.1081 3.03385 54.8065 2.81179C54.5049 2.58972 54.0955 2.47869 53.5785 2.47869C53.2272 2.47869 52.9305 2.52841 52.6886 2.62784C52.4466 2.72396 52.261 2.85819 52.1317 3.03054C52.0058 3.20289 51.9428 3.39844 51.9428 3.61719C51.9362 3.79948 51.9743 3.95857 52.0572 4.09446C52.1433 4.23035 52.261 4.34801 52.4102 4.44744C52.5593 4.54356 52.7317 4.62808 52.9272 4.70099C53.1228 4.7706 53.3316 4.83026 53.5536 4.87997L54.4684 5.09872C54.9125 5.19815 55.3202 5.33073 55.6914 5.49645C56.0626 5.66217 56.3841 5.866 56.6559 6.10795C56.9277 6.34991 57.1381 6.63494 57.2873 6.96307C57.4397 7.29119 57.5176 7.66738 57.521 8.09162C57.5176 8.71473 57.3585 9.25497 57.0437 9.71236C56.7321 10.1664 56.2814 10.5194 55.6914 10.7713C55.1048 11.0199 54.3971 11.1442 53.5685 11.1442C52.7466 11.1442 52.0307 11.0182 51.4208 10.7663C50.8143 10.5144 50.3403 10.1416 49.9989 9.64773C49.6609 9.15057 49.4835 8.53575 49.467 7.80327H51.5501C51.5733 8.14465 51.671 8.42969 51.8434 8.65838C52.0191 8.88376 52.2527 9.05445 52.5444 9.17045C52.8394 9.28314 53.1725 9.33949 53.5437 9.33949C53.9083 9.33949 54.2248 9.28646 54.4933 9.1804C54.765 9.07434 54.9755 8.92685 55.1246 8.73793C55.2738 8.54901 55.3484 8.33191 55.3484 8.08665C55.3484 7.85795 55.2804 7.66572 55.1445 7.50994C55.012 7.35417 54.8164 7.22159 54.5579 7.11222C54.3027 7.00284 53.9895 6.90341 53.6183 6.81392L52.5096 6.53551C51.6512 6.3267 50.9734 6.00024 50.4762 5.55611C49.979 5.11198 49.7321 4.51373 49.7354 3.76136C49.7321 3.14489 49.8962 2.6063 50.2276 2.1456C50.5624 1.6849 51.0214 1.32528 51.6048 1.06676C52.1881 0.808238 52.851 0.678977 53.5934 0.678977C54.3491 0.678977 55.0086 0.808238 55.5721 1.06676C56.1388 1.32528 56.5797 1.6849 56.8945 2.1456C57.2094 2.6063 57.3718 3.13991 57.3817 3.74645H55.3185ZM58.9689 11V0.818182H65.8297V2.59304H61.1216V5.01918H65.4767V6.79403H61.1216V9.22514H65.8496V11H58.9689ZM70.7814 11V0.818182H74.7985C75.5707 0.818182 76.2286 0.965672 76.7722 1.26065C77.3158 1.55232 77.7301 1.95833 78.0151 2.47869C78.3034 2.99574 78.4476 3.59233 78.4476 4.26847C78.4476 4.9446 78.3018 5.54119 78.0101 6.05824C77.7185 6.57528 77.2959 6.97798 76.7424 7.26634C76.1922 7.55469 75.526 7.69886 74.7438 7.69886H72.1834V5.97372H74.3958C74.8101 5.97372 75.1515 5.90246 75.4199 5.75994C75.6917 5.61411 75.8939 5.41359 76.0265 5.15838C76.1623 4.89986 76.2303 4.60322 76.2303 4.26847C76.2303 3.9304 76.1623 3.63542 76.0265 3.38352C75.8939 3.12831 75.6917 2.93111 75.4199 2.7919C75.1481 2.64938 74.8034 2.57812 74.3858 2.57812H72.9341V11H70.7814ZM79.8459 11V0.818182H81.9986V5.01918H86.3686V0.818182H88.5163V11H86.3686V6.79403H81.9986V11H79.8459ZM99.6477 5.90909C99.6477 7.01941 99.4373 7.96402 99.0163 8.7429C98.5987 9.52178 98.0286 10.1167 97.3061 10.5277C96.5869 10.9354 95.7782 11.1392 94.88 11.1392C93.9751 11.1392 93.1631 10.9337 92.4439 10.5227C91.7247 10.1117 91.1563 9.51681 90.7386 8.73793C90.321 7.95904 90.1122 7.0161 90.1122 5.90909C90.1122 4.79877 90.321 3.85417 90.7386 3.07528C91.1563 2.2964 91.7247 1.70312 92.4439 1.29545C93.1631 0.884469 93.9751 0.678977 94.88 0.678977C95.7782 0.678977 96.5869 0.884469 97.3061 1.29545C98.0286 1.70312 98.5987 2.2964 99.0163 3.07528C99.4373 3.85417 99.6477 4.79877 99.6477 5.90909ZM97.4652 5.90909C97.4652 5.18987 97.3575 4.58333 97.142 4.08949C96.9299 3.59564 96.63 3.22112 96.2422 2.96591C95.8544 2.7107 95.4003 2.5831 94.88 2.5831C94.3596 2.5831 93.9055 2.7107 93.5178 2.96591C93.13 3.22112 92.8284 3.59564 92.6129 4.08949C92.4008 4.58333 92.2947 5.18987 92.2947 5.90909C92.2947 6.62831 92.4008 7.23485 92.6129 7.72869C92.8284 8.22254 93.13 8.59706 93.5178 8.85227C93.9055 9.10748 94.3596 9.23509 94.88 9.23509C95.4003 9.23509 95.8544 9.10748 96.2422 8.85227C96.63 8.59706 96.9299 8.22254 97.142 7.72869C97.3575 7.23485 97.4652 6.62831 97.4652 5.90909ZM109.759 0.818182V11H107.899L103.47 4.59162H103.395V11H101.242V0.818182H103.132L107.526 7.22159H107.616V0.818182H109.759ZM111.537 11V0.818182H118.398V2.59304H113.69V5.01918H118.045V6.79403H113.69V9.22514H118.418V11H111.537ZM122.962 2.59304V0.818182H131.324V2.59304H128.207V11H126.079V2.59304H122.962ZM141.593 5.90909C141.593 7.01941 141.383 7.96402 140.962 8.7429C140.544 9.52178 139.974 10.1167 139.251 10.5277C138.532 10.9354 137.723 11.1392 136.825 11.1392C135.92 11.1392 135.108 10.9337 134.389 10.5227C133.67 10.1117 133.102 9.51681 132.684 8.73793C132.266 7.95904 132.058 7.0161 132.058 5.90909C132.058 4.79877 132.266 3.85417 132.684 3.07528C133.102 2.2964 133.67 1.70312 134.389 1.29545C135.108 0.884469 135.92 0.678977 136.825 0.678977C137.723 0.678977 138.532 0.884469 139.251 1.29545C139.974 1.70312 140.544 2.2964 140.962 3.07528C141.383 3.85417 141.593 4.79877 141.593 5.90909ZM139.411 5.90909C139.411 5.18987 139.303 4.58333 139.087 4.08949C138.875 3.59564 138.575 3.22112 138.188 2.96591C137.8 2.7107 137.346 2.5831 136.825 2.5831C136.305 2.5831 135.851 2.7107 135.463 2.96591C135.075 3.22112 134.774 3.59564 134.558 4.08949C134.346 4.58333 134.24 5.18987 134.24 5.90909C134.24 6.62831 134.346 7.23485 134.558 7.72869C134.774 8.22254 135.075 8.59706 135.463 8.85227C135.851 9.10748 136.305 9.23509 136.825 9.23509C137.346 9.23509 137.8 9.10748 138.188 8.85227C138.575 8.59706 138.875 8.22254 139.087 7.72869C139.303 7.23485 139.411 6.62831 139.411 5.90909ZM20.7583 24.6378C20.7015 24.0649 20.4577 23.6198 20.0268 23.3026C19.5959 22.9853 19.0112 22.8267 18.2725 22.8267C17.7707 22.8267 17.3469 22.8977 17.0012 23.0398C16.6556 23.1771 16.3904 23.3688 16.2058 23.6151C16.0259 23.8613 15.9359 24.1406 15.9359 24.4531C15.9264 24.7135 15.9809 24.9408 16.0993 25.1349C16.2224 25.3291 16.3904 25.4972 16.6035 25.6392C16.8166 25.7765 17.0628 25.8973 17.3422 26.0014C17.6215 26.1009 17.9198 26.1861 18.237 26.2571L19.5439 26.5696C20.1783 26.7116 20.7607 26.901 21.291 27.1378C21.8213 27.3745 22.2806 27.6657 22.6689 28.0114C23.0571 28.357 23.3578 28.7642 23.5708 29.233C23.7886 29.7017 23.8999 30.2391 23.9047 30.8452C23.8999 31.7353 23.6726 32.5071 23.2228 33.1605C22.7778 33.8092 22.1338 34.3134 21.291 34.6733C20.4529 35.0284 19.4421 35.206 18.2583 35.206C17.0841 35.206 16.0614 35.026 15.1902 34.6662C14.3237 34.3063 13.6466 33.7737 13.1589 33.0682C12.676 32.358 12.4226 31.4796 12.399 30.4332H15.3748C15.408 30.9209 15.5476 31.3281 15.7939 31.6548C16.0448 31.9768 16.3786 32.2206 16.7953 32.3864C17.2167 32.5473 17.6925 32.6278 18.2228 32.6278C18.7437 32.6278 19.1958 32.5521 19.5794 32.4006C19.9676 32.2491 20.2683 32.0384 20.4814 31.7685C20.6944 31.4986 20.801 31.1884 20.801 30.8381C20.801 30.5114 20.7039 30.2367 20.5098 30.0142C20.3204 29.7917 20.041 29.6023 19.6717 29.446C19.3071 29.2898 18.8597 29.1477 18.3294 29.0199L16.7456 28.6222C15.5192 28.3239 14.551 27.8575 13.8407 27.223C13.1305 26.5885 12.7778 25.7339 12.7825 24.6591C12.7778 23.7784 13.0121 23.009 13.4856 22.3509C13.9638 21.6927 14.6196 21.179 15.4529 20.8097C16.2863 20.4403 17.2333 20.2557 18.2939 20.2557C19.3734 20.2557 20.3156 20.4403 21.1206 20.8097C21.9302 21.179 22.56 21.6927 23.0098 22.3509C23.4596 23.009 23.6916 23.7713 23.7058 24.6378H20.7583ZM38.807 25.5469H35.6962C35.6394 25.1444 35.5234 24.7869 35.3482 24.4744C35.173 24.1572 34.9481 23.8873 34.6735 23.6648C34.3989 23.4422 34.0816 23.2718 33.7218 23.1534C33.3667 23.035 32.9808 22.9759 32.5641 22.9759C31.8113 22.9759 31.1555 23.1629 30.5968 23.5369C30.0381 23.9062 29.6048 24.446 29.2971 25.1562C28.9893 25.8617 28.8354 26.7187 28.8354 27.7273C28.8354 28.7642 28.9893 29.6354 29.2971 30.3409C29.6096 31.0464 30.0452 31.5791 30.6039 31.9389C31.1626 32.2988 31.8089 32.4787 32.5428 32.4787C32.9547 32.4787 33.3359 32.4242 33.6863 32.3153C34.0414 32.2064 34.3562 32.0478 34.6309 31.8395C34.9055 31.6264 35.1328 31.3684 35.3127 31.0653C35.4973 30.7623 35.6252 30.4167 35.6962 30.0284L38.807 30.0426C38.7265 30.7102 38.5253 31.3542 38.2033 31.9744C37.8861 32.59 37.4576 33.1416 36.9178 33.6293C36.3828 34.1122 35.7435 34.4957 35.0002 34.7798C34.2615 35.0592 33.4258 35.1989 32.4931 35.1989C31.1957 35.1989 30.0357 34.9053 29.013 34.3182C27.995 33.7311 27.19 32.8812 26.5982 31.7685C26.0111 30.6558 25.7175 29.3087 25.7175 27.7273C25.7175 26.1411 26.0158 24.7917 26.6124 23.679C27.209 22.5663 28.0186 21.7187 29.0414 21.1364C30.0641 20.5492 31.2147 20.2557 32.4931 20.2557C33.3359 20.2557 34.1171 20.3741 34.8368 20.6108C35.5613 20.8475 36.2028 21.1932 36.7615 21.6477C37.3203 22.0975 37.7748 22.6491 38.1252 23.3026C38.4803 23.956 38.7076 24.7041 38.807 25.5469ZM43.2459 35H39.9505L44.9718 20.4545H48.9348L53.949 35H50.6536L47.0101 23.7784H46.8965L43.2459 35ZM43.04 29.2827H50.824V31.6832H43.04V29.2827ZM67.8659 20.4545V35H65.2097L58.8816 25.8452H58.775V35H55.6998V20.4545H58.3986L64.677 29.6023H64.8049V20.4545H67.8659ZM80.5257 29.9432H83.1394L84.4533 31.6335L85.7459 33.1392L88.182 36.1932H85.3127L83.6365 34.1335L82.7772 32.9119L80.5257 29.9432ZM88.4022 27.7273C88.4022 29.3134 88.1015 30.6629 87.5002 31.7756C86.9036 32.8883 86.0892 33.7382 85.057 34.3253C84.0295 34.9077 82.8742 35.1989 81.5911 35.1989C80.2985 35.1989 79.1384 34.9053 78.111 34.3182C77.0835 33.7311 76.2715 32.8812 75.6749 31.7685C75.0783 30.6558 74.78 29.3087 74.78 27.7273C74.78 26.1411 75.0783 24.7917 75.6749 23.679C76.2715 22.5663 77.0835 21.7187 78.111 21.1364C79.1384 20.5492 80.2985 20.2557 81.5911 20.2557C82.8742 20.2557 84.0295 20.5492 85.057 21.1364C86.0892 21.7187 86.9036 22.5663 87.5002 23.679C88.1015 24.7917 88.4022 26.1411 88.4022 27.7273ZM85.2843 27.7273C85.2843 26.6998 85.1304 25.8333 84.8226 25.1278C84.5196 24.4223 84.0911 23.8873 83.5371 23.5227C82.9831 23.1581 82.3345 22.9759 81.5911 22.9759C80.8477 22.9759 80.199 23.1581 79.6451 23.5227C79.0911 23.8873 78.6602 24.4223 78.3525 25.1278C78.0494 25.8333 77.8979 26.6998 77.8979 27.7273C77.8979 28.7547 78.0494 29.6212 78.3525 30.3267C78.6602 31.0322 79.0911 31.5672 79.6451 31.9318C80.199 32.2964 80.8477 32.4787 81.5911 32.4787C82.3345 32.4787 82.9831 32.2964 83.5371 31.9318C84.0911 31.5672 84.5196 31.0322 84.8226 30.3267C85.1304 29.6212 85.2843 28.7547 85.2843 27.7273ZM90.6802 35V20.4545H96.4189C97.5173 20.4545 98.4548 20.651 99.2314 21.044C100.013 21.4323 100.607 21.9839 101.014 22.6989C101.426 23.4091 101.632 24.2448 101.632 25.206C101.632 26.1719 101.424 27.0028 101.007 27.6989C100.59 28.3902 99.9866 28.9205 99.1958 29.2898C98.4099 29.6591 97.4582 29.8438 96.3407 29.8438H92.4984V27.3722H95.8436C96.4307 27.3722 96.9184 27.2917 97.3066 27.1307C97.6949 26.9697 97.9837 26.7282 98.1731 26.4062C98.3672 26.0843 98.4643 25.6842 98.4643 25.206C98.4643 24.723 98.3672 24.3158 98.1731 23.9844C97.9837 23.6529 97.6925 23.402 97.2995 23.2315C96.9113 23.0563 96.4212 22.9688 95.8294 22.9688H93.7555V35H90.6802ZM98.5353 28.3807L102.15 35H98.7555L95.2186 28.3807H98.5353ZM110.545 26.527V28.9276H103.912V26.527H110.545ZM126.014 25.5469H122.903C122.846 25.1444 122.73 24.7869 122.555 24.4744C122.38 24.1572 122.155 23.8873 121.881 23.6648C121.606 23.4422 121.289 23.2718 120.929 23.1534C120.574 23.035 120.188 22.9759 119.771 22.9759C119.018 22.9759 118.363 23.1629 117.804 23.5369C117.245 23.9062 116.812 24.446 116.504 25.1562C116.196 25.8617 116.042 26.7187 116.042 27.7273C116.042 28.7642 116.196 29.6354 116.504 30.3409C116.817 31.0464 117.252 31.5791 117.811 31.9389C118.37 32.2988 119.016 32.4787 119.75 32.4787C120.162 32.4787 120.543 32.4242 120.893 32.3153C121.248 32.2064 121.563 32.0478 121.838 31.8395C122.113 31.6264 122.34 31.3684 122.52 31.0653C122.704 30.7623 122.832 30.4167 122.903 30.0284L126.014 30.0426C125.934 30.7102 125.732 31.3542 125.41 31.9744C125.093 32.59 124.665 33.1416 124.125 33.6293C123.59 34.1122 122.951 34.4957 122.207 34.7798C121.469 35.0592 120.633 35.1989 119.7 35.1989C118.403 35.1989 117.243 34.9053 116.22 34.3182C115.202 33.7311 114.397 32.8812 113.805 31.7685C113.218 30.6558 112.925 29.3087 112.925 27.7273C112.925 26.1411 113.223 24.7917 113.819 23.679C114.416 22.5663 115.226 21.7187 116.248 21.1364C117.271 20.5492 118.422 20.2557 119.7 20.2557C120.543 20.2557 121.324 20.3741 122.044 20.6108C122.768 20.8475 123.41 21.1932 123.969 21.6477C124.527 22.0975 124.982 22.6491 125.332 23.3026C125.687 23.956 125.915 24.7041 126.014 25.5469ZM141.586 27.7273C141.586 29.3134 141.285 30.6629 140.684 31.7756C140.087 32.8883 139.273 33.7382 138.241 34.3253C137.213 34.9077 136.058 35.1989 134.775 35.1989C133.482 35.1989 132.322 34.9053 131.295 34.3182C130.267 33.7311 129.455 32.8812 128.858 31.7685C128.262 30.6558 127.964 29.3087 127.964 27.7273C127.964 26.1411 128.262 24.7917 128.858 23.679C129.455 22.5663 130.267 21.7187 131.295 21.1364C132.322 20.5492 133.482 20.2557 134.775 20.2557C136.058 20.2557 137.213 20.5492 138.241 21.1364C139.273 21.7187 140.087 22.5663 140.684 23.679C141.285 24.7917 141.586 26.1411 141.586 27.7273ZM138.468 27.7273C138.468 26.6998 138.314 25.8333 138.006 25.1278C137.703 24.4223 137.275 23.8873 136.721 23.5227C136.167 23.1581 135.518 22.9759 134.775 22.9759C134.031 22.9759 133.383 23.1581 132.829 23.5227C132.275 23.8873 131.844 24.4223 131.536 25.1278C131.233 25.8333 131.081 26.6998 131.081 27.7273C131.081 28.7547 131.233 29.6212 131.536 30.3267C131.844 31.0322 132.275 31.5672 132.829 31.9318C133.383 32.2964 134.031 32.4787 134.775 32.4787C135.518 32.4787 136.167 32.2964 136.721 31.9318C137.275 31.5672 137.703 31.0322 138.006 30.3267C138.314 29.6212 138.468 28.7547 138.468 27.7273ZM149.02 35H143.864V20.4545H149.063C150.526 20.4545 151.785 20.7457 152.841 21.3281C153.897 21.9058 154.709 22.7367 155.277 23.821C155.85 24.9053 156.137 26.2027 156.137 27.7131C156.137 29.2282 155.85 30.5303 155.277 31.6193C154.709 32.7083 153.892 33.544 152.827 34.1264C151.766 34.7088 150.497 35 149.02 35ZM146.939 32.3651H148.892C149.801 32.3651 150.566 32.2041 151.186 31.8821C151.811 31.5554 152.28 31.0511 152.593 30.3693C152.91 29.6828 153.068 28.7973 153.068 27.7131C153.068 26.6383 152.91 25.7599 152.593 25.0781C152.28 24.3963 151.814 23.8944 151.193 23.5724C150.573 23.2505 149.808 23.0895 148.899 23.0895H146.939V32.3651ZM158.415 35V20.4545H168.216V22.9901H161.49V26.456H167.711V28.9915H161.49V32.4645H168.244V35H158.415Z" fill="url(#paint0_linear_0_1)"/>
<path d="M0.842507 211V202.273H6.62092V203.794H2.68768V205.874H6.23739V207.395H2.68768V211H0.842507ZM15.8819 206.636C15.8819 207.588 15.7015 208.398 15.3407 209.065C14.9828 209.733 14.4941 210.243 13.8748 210.595C13.2583 210.945 12.5652 211.119 11.7953 211.119C11.0197 211.119 10.3237 210.943 9.70721 210.591C9.09073 210.239 8.60352 209.729 8.24556 209.061C7.88761 208.393 7.70863 207.585 7.70863 206.636C7.70863 205.685 7.88761 204.875 8.24556 204.207C8.60352 203.54 9.09073 203.031 9.70721 202.682C10.3237 202.33 11.0197 202.153 11.7953 202.153C12.5652 202.153 13.2583 202.33 13.8748 202.682C14.4941 203.031 14.9828 203.54 15.3407 204.207C15.7015 204.875 15.8819 205.685 15.8819 206.636ZM14.0112 206.636C14.0112 206.02 13.9189 205.5 13.7342 205.077C13.5524 204.653 13.2953 204.332 12.9629 204.114C12.6305 203.895 12.2413 203.786 11.7953 203.786C11.3493 203.786 10.96 203.895 10.6277 204.114C10.2953 204.332 10.0368 204.653 9.8521 205.077C9.67028 205.5 9.57937 206.02 9.57937 206.636C9.57937 207.253 9.67028 207.773 9.8521 208.196C10.0368 208.619 10.2953 208.94 10.6277 209.159C10.96 209.378 11.3493 209.487 11.7953 209.487C12.2413 209.487 12.6305 209.378 12.9629 209.159C13.2953 208.94 13.5524 208.619 13.7342 208.196C13.9189 207.773 14.0112 207.253 14.0112 206.636ZM17.2488 211V202.273H20.6919C21.351 202.273 21.9135 202.391 22.3794 202.626C22.8482 202.859 23.2047 203.19 23.449 203.619C23.6962 204.045 23.8198 204.547 23.8198 205.124C23.8198 205.703 23.6948 206.202 23.4448 206.619C23.1948 207.034 22.8326 207.352 22.3581 207.574C21.8865 207.795 21.3155 207.906 20.6451 207.906H18.3397V206.423H20.3468C20.699 206.423 20.9917 206.375 21.2246 206.278C21.4576 206.182 21.6309 206.037 21.7445 205.844C21.861 205.651 21.9192 205.411 21.9192 205.124C21.9192 204.834 21.861 204.589 21.7445 204.391C21.6309 204.192 21.4561 204.041 21.2203 203.939C20.9874 203.834 20.6934 203.781 20.3382 203.781H19.0939V211H17.2488ZM21.9618 207.028L24.1309 211H22.0939L19.9718 207.028H21.9618ZM27.9011 211V202.273H31.3443C32.0034 202.273 32.5659 202.391 33.0318 202.626C33.5005 202.859 33.8571 203.19 34.1014 203.619C34.3485 204.045 34.4721 204.547 34.4721 205.124C34.4721 205.703 34.3471 206.202 34.0971 206.619C33.8471 207.034 33.4849 207.352 33.0105 207.574C32.5389 207.795 31.9679 207.906 31.2974 207.906H28.992V206.423H30.9991C31.3514 206.423 31.644 206.375 31.877 206.278C32.1099 206.182 32.2832 206.037 32.3968 205.844C32.5133 205.651 32.5716 205.411 32.5716 205.124C32.5716 204.834 32.5133 204.589 32.3968 204.391C32.2832 204.192 32.1085 204.041 31.8727 203.939C31.6397 203.834 31.3457 203.781 30.9906 203.781H29.7463V211H27.9011ZM32.6142 207.028L34.7832 211H32.7463L30.6241 207.028H32.6142ZM35.7761 211V202.273H41.6568V203.794H37.6213V205.874H41.3542V207.395H37.6213V209.479H41.6738V211H35.7761ZM50.824 205.328H48.9576C48.9235 205.087 48.8539 204.872 48.7488 204.685C48.6436 204.494 48.5087 204.332 48.3439 204.199C48.1792 204.065 47.9888 203.963 47.7729 203.892C47.5598 203.821 47.3283 203.786 47.0783 203.786C46.6266 203.786 46.2331 203.898 45.8979 204.122C45.5627 204.344 45.3027 204.668 45.1181 205.094C44.9334 205.517 44.8411 206.031 44.8411 206.636C44.8411 207.259 44.9334 207.781 45.1181 208.205C45.3056 208.628 45.5669 208.947 45.9022 209.163C46.2374 209.379 46.6252 209.487 47.0655 209.487C47.3127 209.487 47.5414 209.455 47.7516 209.389C47.9647 209.324 48.1536 209.229 48.3184 209.104C48.4831 208.976 48.6195 208.821 48.7275 208.639C48.8382 208.457 48.915 208.25 48.9576 208.017L50.824 208.026C50.7757 208.426 50.655 208.812 50.4618 209.185C50.2715 209.554 50.0144 209.885 49.6905 210.178C49.3695 210.467 48.986 210.697 48.54 210.868C48.0968 211.036 47.5953 211.119 47.0357 211.119C46.2573 211.119 45.5613 210.943 44.9476 210.591C44.3368 210.239 43.8539 209.729 43.4988 209.061C43.1465 208.393 42.9703 207.585 42.9703 206.636C42.9703 205.685 43.1493 204.875 43.5073 204.207C43.8652 203.54 44.351 203.031 44.9647 202.682C45.5783 202.33 46.2686 202.153 47.0357 202.153C47.5414 202.153 48.0101 202.224 48.4419 202.366C48.8766 202.509 49.2615 202.716 49.5968 202.989C49.932 203.259 50.2047 203.589 50.415 203.982C50.628 204.374 50.7644 204.822 50.824 205.328ZM53.9924 202.273V211H52.1472V202.273H53.9924ZM55.5105 211V202.273H61.3912V203.794H57.3556V205.874H61.0886V207.395H57.3556V209.479H61.4082V211H55.5105ZM64.4348 202.273L66.5442 208.903H66.6252L68.7388 202.273H70.7843L67.7757 211H65.3979L62.3851 202.273H64.4348ZM71.8347 211V202.273H77.7154V203.794H73.6799V205.874H77.4128V207.395H73.6799V209.479H77.7324V211H71.8347ZM86.6941 204.783C86.66 204.439 86.5137 204.172 86.2551 203.982C85.9966 203.791 85.6458 203.696 85.2026 203.696C84.9015 203.696 84.6472 203.739 84.4398 203.824C84.2324 203.906 84.0733 204.021 83.9625 204.169C83.8546 204.317 83.8006 204.484 83.8006 204.672C83.7949 204.828 83.8276 204.964 83.8986 205.081C83.9725 205.197 84.0733 205.298 84.2012 205.384C84.329 205.466 84.4767 205.538 84.6444 205.601C84.812 205.661 84.9909 205.712 85.1813 205.754L85.9654 205.942C86.3461 206.027 86.6955 206.141 87.0137 206.283C87.3319 206.425 87.6074 206.599 87.8404 206.807C88.0733 207.014 88.2537 207.259 88.3816 207.54C88.5123 207.821 88.579 208.143 88.5819 208.507C88.579 209.041 88.4426 209.504 88.1728 209.896C87.9057 210.286 87.5194 210.588 87.0137 210.804C86.5108 211.017 85.9043 211.124 85.1941 211.124C84.4895 211.124 83.8759 211.016 83.3532 210.8C82.8333 210.584 82.427 210.264 82.1344 209.841C81.8446 209.415 81.6926 208.888 81.6784 208.26H83.464C83.4838 208.553 83.5676 208.797 83.7154 208.993C83.8659 209.186 84.0662 209.332 84.3162 209.432C84.5691 209.528 84.8546 209.577 85.1728 209.577C85.4853 209.577 85.7566 209.531 85.9867 209.44C86.2196 209.349 86.4 209.223 86.5279 209.061C86.6557 208.899 86.7196 208.713 86.7196 208.503C86.7196 208.307 86.6614 208.142 86.5449 208.009C86.4313 207.875 86.2637 207.761 86.0421 207.668C85.8233 207.574 85.5549 207.489 85.2367 207.412L84.2864 207.173C83.5506 206.994 82.9696 206.714 82.5435 206.334C82.1174 205.953 81.9057 205.44 81.9086 204.795C81.9057 204.267 82.0463 203.805 82.3304 203.411C82.6174 203.016 83.0108 202.707 83.5108 202.486C84.0108 202.264 84.579 202.153 85.2154 202.153C85.8631 202.153 86.4284 202.264 86.9114 202.486C87.3972 202.707 87.775 203.016 88.0449 203.411C88.3148 203.805 88.454 204.263 88.4625 204.783H86.6941ZM95.2136 202.273H97.0588V207.94C97.0588 208.577 96.9068 209.134 96.6028 209.611C96.3017 210.088 95.8798 210.46 95.3372 210.727C94.7946 210.991 94.1625 211.124 93.4409 211.124C92.7164 211.124 92.0829 210.991 91.5403 210.727C90.9977 210.46 90.5758 210.088 90.2747 209.611C89.9735 209.134 89.823 208.577 89.823 207.94V202.273H91.6681V207.783C91.6681 208.115 91.7406 208.411 91.8855 208.669C92.0332 208.928 92.2406 209.131 92.5076 209.278C92.7747 209.426 93.0858 209.5 93.4409 209.5C93.7988 209.5 94.1099 209.426 94.3741 209.278C94.6412 209.131 94.8471 208.928 94.992 208.669C95.1397 208.411 95.2136 208.115 95.2136 207.783V202.273ZM98.5769 202.273H100.852L103.256 208.136H103.358L105.762 202.273H108.037V211H106.247V205.32H106.175L103.916 210.957H102.698L100.439 205.298H100.367V211H98.5769V202.273ZM109.557 202.273H111.833L114.236 208.136H114.339L116.742 202.273H119.018V211H117.228V205.32H117.155L114.897 210.957H113.678L111.42 205.298H111.347V211H109.557V202.273ZM122.042 211H120.065L123.078 202.273H125.455L128.464 211H126.487L124.301 204.267H124.232L122.042 211ZM121.919 207.57H126.589V209.01H121.919V207.57ZM129.514 211V202.273H132.958C133.617 202.273 134.179 202.391 134.645 202.626C135.114 202.859 135.47 203.19 135.715 203.619C135.962 204.045 136.085 204.547 136.085 205.124C136.085 205.703 135.96 206.202 135.71 206.619C135.46 207.034 135.098 207.352 134.624 207.574C134.152 207.795 133.581 207.906 132.911 207.906H130.605V206.423H132.612C132.965 206.423 133.257 206.375 133.49 206.278C133.723 206.182 133.896 206.037 134.01 205.844C134.127 205.651 134.185 205.411 134.185 205.124C134.185 204.834 134.127 204.589 134.01 204.391C133.896 204.192 133.722 204.041 133.486 203.939C133.253 203.834 132.959 203.781 132.604 203.781H131.36V211H129.514ZM134.227 207.028L136.396 211H134.36L132.237 207.028H134.227ZM136.515 202.273H138.581L140.572 206.031H140.657L142.647 202.273H144.714L141.53 207.915V211H139.698V207.915L136.515 202.273ZM155.798 202.273V211H154.205L150.408 205.507H150.344V211H148.499V202.273H150.118L153.885 207.761H153.962V202.273H155.798ZM165.343 206.636C165.343 207.588 165.162 208.398 164.802 209.065C164.444 209.733 163.955 210.243 163.336 210.595C162.719 210.945 162.026 211.119 161.256 211.119C160.481 211.119 159.785 210.943 159.168 210.591C158.552 210.239 158.064 209.729 157.706 209.061C157.349 208.393 157.17 207.585 157.17 206.636C157.17 205.685 157.349 204.875 157.706 204.207C158.064 203.54 158.552 203.031 159.168 202.682C159.785 202.33 160.481 202.153 161.256 202.153C162.026 202.153 162.719 202.33 163.336 202.682C163.955 203.031 164.444 203.54 164.802 204.207C165.162 204.875 165.343 205.685 165.343 206.636ZM163.472 206.636C163.472 206.02 163.38 205.5 163.195 205.077C163.013 204.653 162.756 204.332 162.424 204.114C162.091 203.895 161.702 203.786 161.256 203.786C160.81 203.786 160.421 203.895 160.089 204.114C159.756 204.332 159.498 204.653 159.313 205.077C159.131 205.5 159.04 206.02 159.04 206.636C159.04 207.253 159.131 207.773 159.313 208.196C159.498 208.619 159.756 208.94 160.089 209.159C160.421 209.378 160.81 209.487 161.256 209.487C161.702 209.487 162.091 209.378 162.424 209.159C162.756 208.94 163.013 208.619 163.195 208.196C163.38 207.773 163.472 207.253 163.472 206.636ZM165.979 203.794V202.273H173.146V203.794H170.475V211H168.651V203.794H165.979ZM174.327 211V202.273H180.208V203.794H176.172V205.874H179.905V207.395H176.172V209.479H180.225V211H174.327Z" fill="url(#paint1_linear_0_1)"/>
<path d="M41 76.8125C41 70.9121 45.7991 66.125 51.7143 66.125H73.1429C79.058 66.125 83.8571 70.9121 83.8571 76.8125V98.1875C83.8571 104.088 79.058 108.875 73.1429 108.875H51.7143C45.7991 108.875 41 104.088 41 98.1875V76.8125ZM55.2857 80.375V94.625H69.5714V80.375H55.2857ZM41 133.812C41 127.912 45.7991 123.125 51.7143 123.125H73.1429C79.058 123.125 83.8571 127.912 83.8571 133.812V155.188C83.8571 161.088 79.058 165.875 73.1429 165.875H51.7143C45.7991 165.875 41 161.088 41 155.188V133.812ZM55.2857 137.375V151.625H69.5714V137.375H55.2857ZM108.857 66.125H130.286C136.201 66.125 141 70.9121 141 76.8125V98.1875C141 104.088 136.201 108.875 130.286 108.875H108.857C102.942 108.875 98.1429 104.088 98.1429 98.1875V76.8125C98.1429 70.9121 102.942 66.125 108.857 66.125ZM126.714 80.375H112.429V94.625H126.714V80.375ZM98.1429 126.688C98.1429 124.728 99.75 123.125 101.714 123.125H116C117.964 123.125 119.571 124.728 119.571 126.688C119.571 128.647 121.179 130.25 123.143 130.25H130.286C132.25 130.25 133.857 128.647 133.857 126.688C133.857 124.728 135.464 123.125 137.429 123.125C139.393 123.125 141 124.728 141 126.688V148.062C141 150.022 139.393 151.625 137.429 151.625H123.143C121.179 151.625 119.571 150.022 119.571 148.062C119.571 146.103 117.964 144.5 116 144.5C114.036 144.5 112.429 146.103 112.429 148.062V162.312C112.429 164.272 110.821 165.875 108.857 165.875H101.714C99.75 165.875 98.1429 164.272 98.1429 162.312V126.688ZM123.143 165.875C122.196 165.875 121.287 165.5 120.617 164.832C119.948 164.163 119.571 163.257 119.571 162.312C119.571 161.368 119.948 160.462 120.617 159.793C121.287 159.125 122.196 158.75 123.143 158.75C124.09 158.75 124.998 159.125 125.668 159.793C126.338 160.462 126.714 161.368 126.714 162.312C126.714 163.257 126.338 164.163 125.668 164.832C124.998 165.5 124.09 165.875 123.143 165.875ZM137.429 165.875C136.481 165.875 135.573 165.5 134.903 164.832C134.233 164.163 133.857 163.257 133.857 162.312C133.857 161.368 134.233 160.462 134.903 159.793C135.573 159.125 136.481 158.75 137.429 158.75C138.376 158.75 139.284 159.125 139.954 159.793C140.624 160.462 141 161.368 141 162.312C141 163.257 140.624 164.163 139.954 164.832C139.284 165.5 138.376 165.875 137.429 165.875Z" fill="url(#paint2_linear_0_1)"/>
<rect x="130.087" y="138.344" width="27.8261" height="45.1803" fill="white"/>
<path d="M125.667 140.625C125.667 136.971 128.656 134 132.333 134H155.667C159.344 134 162.333 136.971 162.333 140.625V180.375C162.333 184.029 159.344 187 155.667 187H132.333C128.656 187 125.667 184.029 125.667 180.375V140.625ZM147.333 180.375C147.333 179.496 146.982 178.654 146.357 178.033C145.732 177.411 144.884 177.062 144 177.062C143.116 177.062 142.268 177.411 141.643 178.033C141.018 178.654 140.667 179.496 140.667 180.375C140.667 181.254 141.018 182.096 141.643 182.717C142.268 183.339 143.116 183.688 144 183.688C144.884 183.688 145.732 183.339 146.357 182.717C146.982 182.096 147.333 181.254 147.333 180.375ZM155.667 140.625H132.333V173.75H155.667V140.625Z" fill="#01123F"/>
<defs>
<linearGradient id="paint0_linear_0_1" x1="-35" y1="23.5" x2="216" y2="23.5" gradientUnits="userSpaceOnUse">
<stop stop-color="#00C9FF"/>
<stop offset="1" stop-color="#2C78FF"/>
</linearGradient>
<linearGradient id="paint1_linear_0_1" x1="-3" y1="212" x2="184" y2="212" gradientUnits="userSpaceOnUse">
<stop stop-color="#00C9FF"/>
<stop offset="1" stop-color="#2C78FF"/>
</linearGradient>
<linearGradient id="paint2_linear_0_1" x1="91" y1="66.125" x2="91" y2="165.875" gradientUnits="userSpaceOnUse">
<stop stop-color="#00C9FF"/>
<stop offset="1" stop-color="#2C78FF"/>
</linearGradient>
</defs>
</svg>
