<svg width="173" height="212" viewBox="0 0 173 212" fill="none" xmlns="http://www.w3.org/2000/svg">
<path d="M41.8713 0.818182H44.024V7.4304C44.024 8.17282 43.8467 8.82244 43.492 9.37926C43.1407 9.93608 42.6485 10.3703 42.0154 10.6818C41.3824 10.9901 40.6449 11.1442 39.8031 11.1442C38.9579 11.1442 38.2188 10.9901 37.5858 10.6818C36.9527 10.3703 36.4605 9.93608 36.1092 9.37926C35.7579 8.82244 35.5822 8.17282 35.5822 7.4304V0.818182H37.7349V7.24645C37.7349 7.63423 37.8194 7.97893 37.9885 8.28054C38.1608 8.58215 38.4028 8.81913 38.7143 8.99148C39.0259 9.16383 39.3888 9.25 39.8031 9.25C40.2207 9.25 40.5836 9.16383 40.8919 8.99148C41.2034 8.81913 41.4437 8.58215 41.6127 8.28054C41.7851 7.97893 41.8713 7.63423 41.8713 7.24645V0.818182ZM51.3185 3.74645C51.2788 3.34541 51.1081 3.03385 50.8065 2.81179C50.5049 2.58972 50.0955 2.47869 49.5785 2.47869C49.2272 2.47869 48.9305 2.52841 48.6886 2.62784C48.4466 2.72396 48.261 2.85819 48.1317 3.03054C48.0058 3.20289 47.9428 3.39844 47.9428 3.61719C47.9362 3.79948 47.9743 3.95857 48.0572 4.09446C48.1433 4.23035 48.261 4.34801 48.4102 4.44744C48.5593 4.54356 48.7317 4.62808 48.9272 4.70099C49.1228 4.7706 49.3316 4.83026 49.5536 4.87997L50.4684 5.09872C50.9125 5.19815 51.3202 5.33073 51.6914 5.49645C52.0626 5.66217 52.3841 5.866 52.6559 6.10795C52.9277 6.34991 53.1381 6.63494 53.2873 6.96307C53.4397 7.29119 53.5176 7.66738 53.521 8.09162C53.5176 8.71473 53.3585 9.25497 53.0437 9.71236C52.7321 10.1664 52.2814 10.5194 51.6914 10.7713C51.1048 11.0199 50.3971 11.1442 49.5685 11.1442C48.7466 11.1442 48.0307 11.0182 47.4208 10.7663C46.8143 10.5144 46.3403 10.1416 45.9989 9.64773C45.6609 9.15057 45.4835 8.53575 45.467 7.80327H47.5501C47.5733 8.14465 47.671 8.42969 47.8434 8.65838C48.0191 8.88376 48.2527 9.05445 48.5444 9.17045C48.8394 9.28314 49.1725 9.33949 49.5437 9.33949C49.9083 9.33949 50.2248 9.28646 50.4933 9.1804C50.765 9.07434 50.9755 8.92685 51.1246 8.73793C51.2738 8.54901 51.3484 8.33191 51.3484 8.08665C51.3484 7.85795 51.2804 7.66572 51.1445 7.50994C51.012 7.35417 50.8164 7.22159 50.5579 7.11222C50.3027 7.00284 49.9895 6.90341 49.6183 6.81392L48.5096 6.53551C47.6512 6.3267 46.9734 6.00024 46.4762 5.55611C45.979 5.11198 45.7321 4.51373 45.7354 3.76136C45.7321 3.14489 45.8962 2.6063 46.2276 2.1456C46.5624 1.6849 47.0214 1.32528 47.6048 1.06676C48.1881 0.808238 48.851 0.678977 49.5934 0.678977C50.3491 0.678977 51.0086 0.808238 51.5721 1.06676C52.1388 1.32528 52.5797 1.6849 52.8945 2.1456C53.2094 2.6063 53.3718 3.13991 53.3817 3.74645H51.3185ZM54.9689 11V0.818182H61.8297V2.59304H57.1216V5.01918H61.4767V6.79403H57.1216V9.22514H61.8496V11H54.9689ZM66.7814 11V0.818182H70.7985C71.5707 0.818182 72.2286 0.965672 72.7722 1.26065C73.3158 1.55232 73.7301 1.95833 74.0151 2.47869C74.3034 2.99574 74.4476 3.59233 74.4476 4.26847C74.4476 4.9446 74.3018 5.54119 74.0101 6.05824C73.7185 6.57528 73.2959 6.97798 72.7424 7.26634C72.1922 7.55469 71.526 7.69886 70.7438 7.69886H68.1834V5.97372H70.3958C70.8101 5.97372 71.1515 5.90246 71.4199 5.75994C71.6917 5.61411 71.8939 5.41359 72.0265 5.15838C72.1623 4.89986 72.2303 4.60322 72.2303 4.26847C72.2303 3.9304 72.1623 3.63542 72.0265 3.38352C71.8939 3.12831 71.6917 2.93111 71.4199 2.7919C71.1481 2.64938 70.8034 2.57812 70.3858 2.57812H68.9341V11H66.7814ZM75.8459 11V0.818182H77.9986V5.01918H82.3686V0.818182H84.5163V11H82.3686V6.79403H77.9986V11H75.8459ZM95.6477 5.90909C95.6477 7.01941 95.4373 7.96402 95.0163 8.7429C94.5987 9.52178 94.0286 10.1167 93.3061 10.5277C92.5869 10.9354 91.7782 11.1392 90.88 11.1392C89.9751 11.1392 89.1631 10.9337 88.4439 10.5227C87.7247 10.1117 87.1563 9.51681 86.7386 8.73793C86.321 7.95904 86.1122 7.0161 86.1122 5.90909C86.1122 4.79877 86.321 3.85417 86.7386 3.07528C87.1563 2.2964 87.7247 1.70312 88.4439 1.29545C89.1631 0.884469 89.9751 0.678977 90.88 0.678977C91.7782 0.678977 92.5869 0.884469 93.3061 1.29545C94.0286 1.70312 94.5987 2.2964 95.0163 3.07528C95.4373 3.85417 95.6477 4.79877 95.6477 5.90909ZM93.4652 5.90909C93.4652 5.18987 93.3575 4.58333 93.142 4.08949C92.9299 3.59564 92.63 3.22112 92.2422 2.96591C91.8544 2.7107 91.4003 2.5831 90.88 2.5831C90.3596 2.5831 89.9055 2.7107 89.5178 2.96591C89.13 3.22112 88.8284 3.59564 88.6129 4.08949C88.4008 4.58333 88.2947 5.18987 88.2947 5.90909C88.2947 6.62831 88.4008 7.23485 88.6129 7.72869C88.8284 8.22254 89.13 8.59706 89.5178 8.85227C89.9055 9.10748 90.3596 9.23509 90.88 9.23509C91.4003 9.23509 91.8544 9.10748 92.2422 8.85227C92.63 8.59706 92.9299 8.22254 93.142 7.72869C93.3575 7.23485 93.4652 6.62831 93.4652 5.90909ZM105.759 0.818182V11H103.899L99.4696 4.59162H99.3951V11H97.2424V0.818182H99.1316L103.526 7.22159H103.616V0.818182H105.759ZM107.537 11V0.818182H114.398V2.59304H109.69V5.01918H114.045V6.79403H109.69V9.22514H114.418V11H107.537ZM118.962 2.59304V0.818182H127.324V2.59304H124.207V11H122.079V2.59304H118.962ZM137.593 5.90909C137.593 7.01941 137.383 7.96402 136.962 8.7429C136.544 9.52178 135.974 10.1167 135.251 10.5277C134.532 10.9354 133.723 11.1392 132.825 11.1392C131.92 11.1392 131.108 10.9337 130.389 10.5227C129.67 10.1117 129.102 9.51681 128.684 8.73793C128.266 7.95904 128.058 7.0161 128.058 5.90909C128.058 4.79877 128.266 3.85417 128.684 3.07528C129.102 2.2964 129.67 1.70312 130.389 1.29545C131.108 0.884469 131.92 0.678977 132.825 0.678977C133.723 0.678977 134.532 0.884469 135.251 1.29545C135.974 1.70312 136.544 2.2964 136.962 3.07528C137.383 3.85417 137.593 4.79877 137.593 5.90909ZM135.411 5.90909C135.411 5.18987 135.303 4.58333 135.087 4.08949C134.875 3.59564 134.575 3.22112 134.188 2.96591C133.8 2.7107 133.346 2.5831 132.825 2.5831C132.305 2.5831 131.851 2.7107 131.463 2.96591C131.075 3.22112 130.774 3.59564 130.558 4.08949C130.346 4.58333 130.24 5.18987 130.24 5.90909C130.24 6.62831 130.346 7.23485 130.558 7.72869C130.774 8.22254 131.075 8.59706 131.463 8.85227C131.851 9.10748 132.305 9.23509 132.825 9.23509C133.346 9.23509 133.8 9.10748 134.188 8.85227C134.575 8.59706 134.875 8.22254 135.087 7.72869C135.303 7.23485 135.411 6.62831 135.411 5.90909ZM19.1314 24.6378C19.0746 24.0649 18.8307 23.6198 18.3999 23.3026C17.969 22.9853 17.3842 22.8267 16.6456 22.8267C16.1437 22.8267 15.7199 22.8977 15.3743 23.0398C15.0286 23.1771 14.7635 23.3688 14.5788 23.6151C14.3989 23.8613 14.3089 24.1406 14.3089 24.4531C14.2995 24.7135 14.3539 24.9408 14.4723 25.1349C14.5954 25.3291 14.7635 25.4972 14.9766 25.6392C15.1896 25.7765 15.4358 25.8973 15.7152 26.0014C15.9946 26.1009 16.2929 26.1861 16.6101 26.2571L17.9169 26.5696C18.5514 26.7116 19.1338 26.901 19.6641 27.1378C20.1944 27.3745 20.6536 27.6657 21.0419 28.0114C21.4302 28.357 21.7308 28.7642 21.9439 29.233C22.1617 29.7017 22.273 30.2391 22.2777 30.8452C22.273 31.7353 22.0457 32.5071 21.5959 33.1605C21.1508 33.8092 20.5069 34.3134 19.6641 34.6733C18.826 35.0284 17.8151 35.206 16.6314 35.206C15.4571 35.206 14.4344 35.026 13.5632 34.6662C12.6967 34.3063 12.0196 33.7737 11.532 33.0682C11.049 32.358 10.7957 31.4796 10.772 30.4332H13.7479C13.781 30.9209 13.9207 31.3281 14.1669 31.6548C14.4179 31.9768 14.7517 32.2206 15.1683 32.3864C15.5897 32.5473 16.0656 32.6278 16.5959 32.6278C17.1167 32.6278 17.5689 32.5521 17.9524 32.4006C18.3407 32.2491 18.6413 32.0384 18.8544 31.7685C19.0675 31.4986 19.174 31.1884 19.174 30.8381C19.174 30.5114 19.0769 30.2367 18.8828 30.0142C18.6934 29.7917 18.4141 29.6023 18.0447 29.446C17.6802 29.2898 17.2327 29.1477 16.7024 29.0199L15.1186 28.6222C13.8923 28.3239 12.924 27.8575 12.2138 27.223C11.5036 26.5885 11.1508 25.7339 11.1555 24.6591C11.1508 23.7784 11.3852 23.009 11.8587 22.3509C12.3369 21.6927 12.9927 21.179 13.826 20.8097C14.6593 20.4403 15.6063 20.2557 16.6669 20.2557C17.7464 20.2557 18.6887 20.4403 19.4936 20.8097C20.3033 21.179 20.933 21.6927 21.3828 22.3509C21.8326 23.009 22.0646 23.7713 22.0788 24.6378H19.1314ZM37.18 25.5469H34.0692C34.0124 25.1444 33.8964 24.7869 33.7212 24.4744C33.546 24.1572 33.3211 23.8873 33.0465 23.6648C32.7719 23.4422 32.4547 23.2718 32.0948 23.1534C31.7397 23.035 31.3538 22.9759 30.9371 22.9759C30.1843 22.9759 29.5285 23.1629 28.9698 23.5369C28.4111 23.9062 27.9779 24.446 27.6701 25.1562C27.3623 25.8617 27.2085 26.7187 27.2085 27.7273C27.2085 28.7642 27.3623 29.6354 27.6701 30.3409C27.9826 31.0464 28.4182 31.5791 28.9769 31.9389C29.5356 32.2988 30.1819 32.4787 30.9158 32.4787C31.3278 32.4787 31.7089 32.4242 32.0593 32.3153C32.4144 32.2064 32.7293 32.0478 33.0039 31.8395C33.2785 31.6264 33.5058 31.3684 33.6857 31.0653C33.8704 30.7623 33.9982 30.4167 34.0692 30.0284L37.18 30.0426C37.0996 30.7102 36.8983 31.3542 36.5763 31.9744C36.2591 32.59 35.8306 33.1416 35.2908 33.6293C34.7558 34.1122 34.1166 34.4957 33.3732 34.7798C32.6346 35.0592 31.7989 35.1989 30.8661 35.1989C29.5688 35.1989 28.4087 34.9053 27.386 34.3182C26.368 33.7311 25.5631 32.8812 24.9712 31.7685C24.3841 30.6558 24.0906 29.3087 24.0906 27.7273C24.0906 26.1411 24.3888 24.7917 24.9854 23.679C25.582 22.5663 26.3917 21.7187 27.4144 21.1364C28.4371 20.5492 29.5877 20.2557 30.8661 20.2557C31.7089 20.2557 32.4902 20.3741 33.2099 20.6108C33.9343 20.8475 34.5759 21.1932 35.1346 21.6477C35.6933 22.0975 36.1478 22.6491 36.4982 23.3026C36.8533 23.956 37.0806 24.7041 37.18 25.5469ZM41.619 35H38.3235L43.3448 20.4545H47.3079L52.3221 35H49.0266L45.3832 23.7784H45.2695L41.619 35ZM41.413 29.2827H49.1971V31.6832H41.413V29.2827ZM66.239 20.4545V35H63.5827L57.2546 25.8452H57.1481V35H54.0728V20.4545H56.7717L63.0501 29.6023H63.1779V20.4545H66.239ZM78.8988 29.9432H81.5124L82.8263 31.6335L84.119 33.1392L86.555 36.1932H83.6857L82.0096 34.1335L81.1502 32.9119L78.8988 29.9432ZM86.7752 27.7273C86.7752 29.3134 86.4746 30.6629 85.8732 31.7756C85.2766 32.8883 84.4622 33.7382 83.43 34.3253C82.4026 34.9077 81.2473 35.1989 79.9641 35.1989C78.6715 35.1989 77.5115 34.9053 76.484 34.3182C75.4566 33.7311 74.6445 32.8812 74.0479 31.7685C73.4513 30.6558 73.1531 29.3087 73.1531 27.7273C73.1531 26.1411 73.4513 24.7917 74.0479 23.679C74.6445 22.5663 75.4566 21.7187 76.484 21.1364C77.5115 20.5492 78.6715 20.2557 79.9641 20.2557C81.2473 20.2557 82.4026 20.5492 83.43 21.1364C84.4622 21.7187 85.2766 22.5663 85.8732 23.679C86.4746 24.7917 86.7752 26.1411 86.7752 27.7273ZM83.6573 27.7273C83.6573 26.6998 83.5034 25.8333 83.1957 25.1278C82.8926 24.4223 82.4641 23.8873 81.9102 23.5227C81.3562 23.1581 80.7075 22.9759 79.9641 22.9759C79.2208 22.9759 78.5721 23.1581 78.0181 23.5227C77.4641 23.8873 77.0333 24.4223 76.7255 25.1278C76.4225 25.8333 76.271 26.6998 76.271 27.7273C76.271 28.7547 76.4225 29.6212 76.7255 30.3267C77.0333 31.0322 77.4641 31.5672 78.0181 31.9318C78.5721 32.2964 79.2208 32.4787 79.9641 32.4787C80.7075 32.4787 81.3562 32.2964 81.9102 31.9318C82.4641 31.5672 82.8926 31.0322 83.1957 30.3267C83.5034 29.6212 83.6573 28.7547 83.6573 27.7273ZM89.0533 35V20.4545H94.7919C95.8904 20.4545 96.8279 20.651 97.6044 21.044C98.3857 21.4323 98.9799 21.9839 99.3871 22.6989C99.799 23.4091 100.005 24.2448 100.005 25.206C100.005 26.1719 99.7966 27.0028 99.38 27.6989C98.9633 28.3902 98.3596 28.9205 97.5689 29.2898C96.7829 29.6591 95.8312 29.8438 94.7138 29.8438H90.8714V27.3722H94.2166C94.8037 27.3722 95.2914 27.2917 95.6797 27.1307C96.0679 26.9697 96.3568 26.7282 96.5462 26.4062C96.7403 26.0843 96.8374 25.6842 96.8374 25.206C96.8374 24.723 96.7403 24.3158 96.5462 23.9844C96.3568 23.6529 96.0656 23.402 95.6726 23.2315C95.2843 23.0563 94.7943 22.9688 94.2024 22.9688H92.1286V35H89.0533ZM96.9084 28.3807L100.523 35H97.1286L93.5916 28.3807H96.9084ZM119.641 25.5469H116.53C116.473 25.1444 116.357 24.7869 116.182 24.4744C116.007 24.1572 115.782 23.8873 115.507 23.6648C115.233 23.4422 114.916 23.2718 114.556 23.1534C114.201 23.035 113.815 22.9759 113.398 22.9759C112.645 22.9759 111.989 23.1629 111.431 23.5369C110.872 23.9062 110.439 24.446 110.131 25.1562C109.823 25.8617 109.669 26.7187 109.669 27.7273C109.669 28.7642 109.823 29.6354 110.131 30.3409C110.444 31.0464 110.879 31.5791 111.438 31.9389C111.997 32.2988 112.643 32.4787 113.377 32.4787C113.789 32.4787 114.17 32.4242 114.52 32.3153C114.875 32.2064 115.19 32.0478 115.465 31.8395C115.739 31.6264 115.967 31.3684 116.147 31.0653C116.331 30.7623 116.459 30.4167 116.53 30.0284L119.641 30.0426C119.56 30.7102 119.359 31.3542 119.037 31.9744C118.72 32.59 118.292 33.1416 117.752 33.6293C117.217 34.1122 116.578 34.4957 115.834 34.7798C115.096 35.0592 114.26 35.1989 113.327 35.1989C112.03 35.1989 110.87 34.9053 109.847 34.3182C108.829 33.7311 108.024 32.8812 107.432 31.7685C106.845 30.6558 106.551 29.3087 106.551 27.7273C106.551 26.1411 106.85 24.7917 107.446 23.679C108.043 22.5663 108.853 21.7187 109.875 21.1364C110.898 20.5492 112.049 20.2557 113.327 20.2557C114.17 20.2557 114.951 20.3741 115.671 20.6108C116.395 20.8475 117.037 21.1932 117.596 21.6477C118.154 22.0975 118.609 22.6491 118.959 23.3026C119.314 23.956 119.542 24.7041 119.641 25.5469ZM135.213 27.7273C135.213 29.3134 134.912 30.6629 134.311 31.7756C133.714 32.8883 132.9 33.7382 131.868 34.3253C130.84 34.9077 129.685 35.1989 128.402 35.1989C127.109 35.1989 125.949 34.9053 124.922 34.3182C123.894 33.7311 123.082 32.8812 122.485 31.7685C121.889 30.6558 121.591 29.3087 121.591 27.7273C121.591 26.1411 121.889 24.7917 122.485 23.679C123.082 22.5663 123.894 21.7187 124.922 21.1364C125.949 20.5492 127.109 20.2557 128.402 20.2557C129.685 20.2557 130.84 20.5492 131.868 21.1364C132.9 21.7187 133.714 22.5663 134.311 23.679C134.912 24.7917 135.213 26.1411 135.213 27.7273ZM132.095 27.7273C132.095 26.6998 131.941 25.8333 131.633 25.1278C131.33 24.4223 130.902 23.8873 130.348 23.5227C129.794 23.1581 129.145 22.9759 128.402 22.9759C127.658 22.9759 127.01 23.1581 126.456 23.5227C125.902 23.8873 125.471 24.4223 125.163 25.1278C124.86 25.8333 124.708 26.6998 124.708 27.7273C124.708 28.7547 124.86 29.6212 125.163 30.3267C125.471 31.0322 125.902 31.5672 126.456 31.9318C127.01 32.2964 127.658 32.4787 128.402 32.4787C129.145 32.4787 129.794 32.2964 130.348 31.9318C130.902 31.5672 131.33 31.0322 131.633 30.3267C131.941 29.6212 132.095 28.7547 132.095 27.7273ZM142.647 35H137.491V20.4545H142.69C144.153 20.4545 145.412 20.7457 146.468 21.3281C147.524 21.9058 148.336 22.7367 148.904 23.821C149.477 24.9053 149.763 26.2027 149.763 27.7131C149.763 29.2282 149.477 30.5303 148.904 31.6193C148.336 32.7083 147.519 33.544 146.454 34.1264C145.393 34.7088 144.124 35 142.647 35ZM140.566 32.3651H142.519C143.428 32.3651 144.193 32.2041 144.813 31.8821C145.438 31.5554 145.907 31.0511 146.219 30.3693C146.537 29.6828 146.695 28.7973 146.695 27.7131C146.695 26.6383 146.537 25.7599 146.219 25.0781C145.907 24.3963 145.441 23.8944 144.82 23.5724C144.2 23.2505 143.435 23.0895 142.526 23.0895H140.566V32.3651ZM152.042 35V20.4545H161.843V22.9901H155.117V26.456H161.338V28.9915H155.117V32.4645H161.871V35H152.042Z" fill="url(#paint0_linear_0_1)"/>
<path d="M0.148793 203.794V202.273H7.31641V203.794H4.64453V211H2.82067V203.794H0.148793ZM16.1183 206.636C16.1183 207.588 15.9379 208.398 15.5771 209.065C15.2191 209.733 14.7305 210.243 14.1112 210.595C13.4947 210.945 12.8015 211.119 12.0316 211.119C11.256 211.119 10.56 210.943 9.94354 210.591C9.32706 210.239 8.83984 209.729 8.48189 209.061C8.12393 208.393 7.94496 207.585 7.94496 206.636C7.94496 205.685 8.12393 204.875 8.48189 204.207C8.83984 203.54 9.32706 203.031 9.94354 202.682C10.56 202.33 11.256 202.153 12.0316 202.153C12.8015 202.153 13.4947 202.33 14.1112 202.682C14.7305 203.031 15.2191 203.54 15.5771 204.207C15.9379 204.875 16.1183 205.685 16.1183 206.636ZM14.2475 206.636C14.2475 206.02 14.1552 205.5 13.9705 205.077C13.7887 204.653 13.5316 204.332 13.1992 204.114C12.8668 203.895 12.4776 203.786 12.0316 203.786C11.5856 203.786 11.1964 203.895 10.864 204.114C10.5316 204.332 10.2731 204.653 10.0884 205.077C9.90661 205.5 9.8157 206.02 9.8157 206.636C9.8157 207.253 9.90661 207.773 10.0884 208.196C10.2731 208.619 10.5316 208.94 10.864 209.159C11.1964 209.378 11.5856 209.487 12.0316 209.487C12.4776 209.487 12.8668 209.378 13.1992 209.159C13.5316 208.94 13.7887 208.619 13.9705 208.196C14.1552 207.773 14.2475 207.253 14.2475 206.636ZM20.2624 211V202.273H23.7056C24.3647 202.273 24.9272 202.391 25.3931 202.626C25.8619 202.859 26.2184 203.19 26.4627 203.619C26.7099 204.045 26.8335 204.547 26.8335 205.124C26.8335 205.703 26.7085 206.202 26.4585 206.619C26.2085 207.034 25.8462 207.352 25.3718 207.574C24.9002 207.795 24.3292 207.906 23.6587 207.906H21.3533V206.423H23.3604C23.7127 206.423 24.0053 206.375 24.2383 206.278C24.4712 206.182 24.6445 206.037 24.7582 205.844C24.8746 205.651 24.9329 205.411 24.9329 205.124C24.9329 204.834 24.8746 204.589 24.7582 204.391C24.6445 204.192 24.4698 204.041 24.234 203.939C24.0011 203.834 23.707 203.781 23.3519 203.781H22.1076V211H20.2624ZM24.9755 207.028L27.1445 211H25.1076L22.9854 207.028H24.9755ZM28.1374 211V202.273H34.0181V203.794H29.9826V205.874H33.7156V207.395H29.9826V209.479H34.0352V211H28.1374ZM43.1854 205.328H41.3189C41.2848 205.087 41.2152 204.872 41.1101 204.685C41.005 204.494 40.87 204.332 40.7053 204.199C40.5405 204.065 40.3501 203.963 40.1342 203.892C39.9212 203.821 39.6896 203.786 39.4396 203.786C38.9879 203.786 38.5945 203.898 38.2592 204.122C37.924 204.344 37.6641 204.668 37.4794 205.094C37.2947 205.517 37.2024 206.031 37.2024 206.636C37.2024 207.259 37.2947 207.781 37.4794 208.205C37.6669 208.628 37.9283 208.947 38.2635 209.163C38.5987 209.379 38.9865 209.487 39.4268 209.487C39.674 209.487 39.9027 209.455 40.1129 209.389C40.326 209.324 40.5149 209.229 40.6797 209.104C40.8445 208.976 40.9808 208.821 41.0888 208.639C41.1996 208.457 41.2763 208.25 41.3189 208.017L43.1854 208.026C43.1371 208.426 43.0163 208.812 42.8232 209.185C42.6328 209.554 42.3757 209.885 42.0518 210.178C41.7308 210.467 41.3473 210.697 40.9013 210.868C40.4581 211.036 39.9567 211.119 39.397 211.119C38.6186 211.119 37.9226 210.943 37.3089 210.591C36.6982 210.239 36.2152 209.729 35.8601 209.061C35.5078 208.393 35.3317 207.585 35.3317 206.636C35.3317 205.685 35.5107 204.875 35.8686 204.207C36.2266 203.54 36.7124 203.031 37.326 202.682C37.9396 202.33 38.63 202.153 39.397 202.153C39.9027 202.153 40.3714 202.224 40.8033 202.366C41.2379 202.509 41.6229 202.716 41.9581 202.989C42.2933 203.259 42.5661 203.589 42.7763 203.982C42.9893 204.374 43.1257 204.822 43.1854 205.328ZM44.5085 211V202.273H50.3892V203.794H46.3537V205.874H50.0866V207.395H46.3537V209.479H50.4062V211H44.5085ZM53.7013 202.273V211H51.8562V202.273H53.7013ZM56.7962 202.273L58.9055 208.903H58.9865L61.1001 202.273H63.1456L60.1371 211H57.7592L54.7464 202.273H56.7962ZM64.196 211V202.273H70.0767V203.794H66.0412V205.874H69.7741V207.395H66.0412V209.479H70.0938V211H64.196ZM79.0554 204.783C79.0213 204.439 78.875 204.172 78.6165 203.982C78.358 203.791 78.0071 203.696 77.5639 203.696C77.2628 203.696 77.0085 203.739 76.8011 203.824C76.5938 203.906 76.4347 204.021 76.3239 204.169C76.2159 204.317 76.1619 204.484 76.1619 204.672C76.1563 204.828 76.1889 204.964 76.2599 205.081C76.3338 205.197 76.4347 205.298 76.5625 205.384C76.6903 205.466 76.8381 205.538 77.0057 205.601C77.1733 205.661 77.3523 205.712 77.5426 205.754L78.3267 205.942C78.7074 206.027 79.0568 206.141 79.375 206.283C79.6932 206.425 79.9688 206.599 80.2017 206.807C80.4347 207.014 80.6151 207.259 80.7429 207.54C80.8736 207.821 80.9403 208.143 80.9432 208.507C80.9403 209.041 80.804 209.504 80.5341 209.896C80.267 210.286 79.8807 210.588 79.375 210.804C78.8722 211.017 78.2656 211.124 77.5554 211.124C76.8509 211.124 76.2372 211.016 75.7145 210.8C75.1946 210.584 74.7884 210.264 74.4957 209.841C74.206 209.415 74.054 208.888 74.0398 208.26H75.8253C75.8452 208.553 75.929 208.797 76.0767 208.993C76.2273 209.186 76.4276 209.332 76.6776 209.432C76.9304 209.528 77.2159 209.577 77.5341 209.577C77.8466 209.577 78.1179 209.531 78.348 209.44C78.581 209.349 78.7614 209.223 78.8892 209.061C79.017 208.899 79.081 208.713 79.081 208.503C79.081 208.307 79.0227 208.142 78.9062 208.009C78.7926 207.875 78.625 207.761 78.4034 207.668C78.1847 207.574 77.9162 207.489 77.598 207.412L76.6477 207.173C75.9119 206.994 75.331 206.714 74.9048 206.334C74.4787 205.953 74.267 205.44 74.2699 204.795C74.267 204.267 74.4077 203.805 74.6918 203.411C74.9787 203.016 75.3722 202.707 75.8722 202.486C76.3722 202.264 76.9403 202.153 77.5767 202.153C78.2244 202.153 78.7898 202.264 79.2727 202.486C79.7585 202.707 80.1364 203.016 80.4062 203.411C80.6761 203.805 80.8153 204.263 80.8239 204.783H79.0554ZM87.5749 202.273H89.4201V207.94C89.4201 208.577 89.2681 209.134 88.9641 209.611C88.663 210.088 88.2411 210.46 87.6985 210.727C87.1559 210.991 86.5238 211.124 85.8022 211.124C85.0778 211.124 84.4442 210.991 83.9016 210.727C83.359 210.46 82.9371 210.088 82.636 209.611C82.3349 209.134 82.1843 208.577 82.1843 207.94V202.273H84.0295V207.783C84.0295 208.115 84.1019 208.411 84.2468 208.669C84.3945 208.928 84.6019 209.131 84.869 209.278C85.136 209.426 85.4471 209.5 85.8022 209.5C86.1602 209.5 86.4712 209.426 86.7354 209.278C87.0025 209.131 87.2085 208.928 87.3533 208.669C87.5011 208.411 87.5749 208.115 87.5749 207.783V202.273ZM90.9382 202.273H93.2138L95.6172 208.136H95.7195L98.1229 202.273H100.398V211H98.6087V205.32H98.5362L96.2777 210.957H95.0589L92.8004 205.298H92.728V211H90.9382V202.273ZM101.919 202.273H104.194L106.598 208.136H106.7L109.103 202.273H111.379V211H109.589V205.32H109.517L107.258 210.957H106.039L103.781 205.298H103.708V211H101.919V202.273ZM114.403 211H112.426L115.439 202.273H117.817L120.825 211H118.848L116.662 204.267H116.594L114.403 211ZM114.28 207.57H118.95V209.01H114.28V207.57ZM121.876 211V202.273H125.319C125.978 202.273 126.54 202.391 127.006 202.626C127.475 202.859 127.832 203.19 128.076 203.619C128.323 204.045 128.447 204.547 128.447 205.124C128.447 205.703 128.322 206.202 128.072 206.619C127.822 207.034 127.46 207.352 126.985 207.574C126.513 207.795 125.942 207.906 125.272 207.906H122.967V206.423H124.974C125.326 206.423 125.619 206.375 125.852 206.278C126.085 206.182 126.258 206.037 126.371 205.844C126.488 205.651 126.546 205.411 126.546 205.124C126.546 204.834 126.488 204.589 126.371 204.391C126.258 204.192 126.083 204.041 125.847 203.939C125.614 203.834 125.32 203.781 124.965 203.781H123.721V211H121.876ZM126.589 207.028L128.758 211H126.721L124.599 207.028H126.589ZM128.876 202.273H130.943L132.933 206.031H133.018L135.008 202.273H137.075L133.892 207.915V211H132.059V207.915L128.876 202.273ZM148.16 202.273V211H146.566L142.769 205.507H142.705V211H140.86V202.273H142.479L146.246 207.761H146.323V202.273H148.16ZM157.704 206.636C157.704 207.588 157.524 208.398 157.163 209.065C156.805 209.733 156.316 210.243 155.697 210.595C155.081 210.945 154.387 211.119 153.618 211.119C152.842 211.119 152.146 210.943 151.529 210.591C150.913 210.239 150.426 209.729 150.068 209.061C149.71 208.393 149.531 207.585 149.531 206.636C149.531 205.685 149.71 204.875 150.068 204.207C150.426 203.54 150.913 203.031 151.529 202.682C152.146 202.33 152.842 202.153 153.618 202.153C154.387 202.153 155.081 202.33 155.697 202.682C156.316 203.031 156.805 203.54 157.163 204.207C157.524 204.875 157.704 205.685 157.704 206.636ZM155.833 206.636C155.833 206.02 155.741 205.5 155.556 205.077C155.375 204.653 155.118 204.332 154.785 204.114C154.453 203.895 154.064 203.786 153.618 203.786C153.172 203.786 152.782 203.895 152.45 204.114C152.118 204.332 151.859 204.653 151.674 205.077C151.493 205.5 151.402 206.02 151.402 206.636C151.402 207.253 151.493 207.773 151.674 208.196C151.859 208.619 152.118 208.94 152.45 209.159C152.782 209.378 153.172 209.487 153.618 209.487C154.064 209.487 154.453 209.378 154.785 209.159C155.118 208.94 155.375 208.619 155.556 208.196C155.741 207.773 155.833 207.253 155.833 206.636ZM158.34 203.794V202.273H165.508V203.794H162.836V211H161.012V203.794H158.34ZM166.688 211V202.273H172.569V203.794H168.533V205.874H172.266V207.395H168.533V209.479H172.586V211H166.688Z" fill="url(#paint1_linear_0_1)"/>
<path d="M37 76.8125C37 70.9121 41.7991 66.125 47.7143 66.125H69.1429C75.058 66.125 79.8571 70.9121 79.8571 76.8125V98.1875C79.8571 104.088 75.058 108.875 69.1429 108.875H47.7143C41.7991 108.875 37 104.088 37 98.1875V76.8125ZM51.2857 80.375V94.625H65.5714V80.375H51.2857ZM37 133.812C37 127.912 41.7991 123.125 47.7143 123.125H69.1429C75.058 123.125 79.8571 127.912 79.8571 133.812V155.188C79.8571 161.088 75.058 165.875 69.1429 165.875H47.7143C41.7991 165.875 37 161.088 37 155.188V133.812ZM51.2857 137.375V151.625H65.5714V137.375H51.2857ZM104.857 66.125H126.286C132.201 66.125 137 70.9121 137 76.8125V98.1875C137 104.088 132.201 108.875 126.286 108.875H104.857C98.942 108.875 94.1429 104.088 94.1429 98.1875V76.8125C94.1429 70.9121 98.942 66.125 104.857 66.125ZM122.714 80.375H108.429V94.625H122.714V80.375ZM94.1429 126.688C94.1429 124.728 95.75 123.125 97.7143 123.125H112C113.964 123.125 115.571 124.728 115.571 126.688C115.571 128.647 117.179 130.25 119.143 130.25H126.286C128.25 130.25 129.857 128.647 129.857 126.688C129.857 124.728 131.464 123.125 133.429 123.125C135.393 123.125 137 124.728 137 126.688V148.062C137 150.022 135.393 151.625 133.429 151.625H119.143C117.179 151.625 115.571 150.022 115.571 148.062C115.571 146.103 113.964 144.5 112 144.5C110.036 144.5 108.429 146.103 108.429 148.062V162.312C108.429 164.272 106.821 165.875 104.857 165.875H97.7143C95.75 165.875 94.1429 164.272 94.1429 162.312V126.688ZM119.143 165.875C118.196 165.875 117.287 165.5 116.617 164.832C115.948 164.163 115.571 163.257 115.571 162.312C115.571 161.368 115.948 160.462 116.617 159.793C117.287 159.125 118.196 158.75 119.143 158.75C120.09 158.75 120.998 159.125 121.668 159.793C122.338 160.462 122.714 161.368 122.714 162.312C122.714 163.257 122.338 164.163 121.668 164.832C120.998 165.5 120.09 165.875 119.143 165.875ZM133.429 165.875C132.481 165.875 131.573 165.5 130.903 164.832C130.233 164.163 129.857 163.257 129.857 162.312C129.857 161.368 130.233 160.462 130.903 159.793C131.573 159.125 132.481 158.75 133.429 158.75C134.376 158.75 135.284 159.125 135.954 159.793C136.624 160.462 137 161.368 137 162.312C137 163.257 136.624 164.163 135.954 164.832C135.284 165.5 134.376 165.875 133.429 165.875Z" fill="url(#paint2_linear_0_1)"/>
<rect x="126.087" y="138.344" width="27.8261" height="45.1803" fill="white"/>
<path d="M121.667 140.625C121.667 136.971 124.656 134 128.333 134H151.667C155.344 134 158.333 136.971 158.333 140.625V180.375C158.333 184.029 155.344 187 151.667 187H128.333C124.656 187 121.667 184.029 121.667 180.375V140.625ZM143.333 180.375C143.333 179.496 142.982 178.654 142.357 178.033C141.732 177.411 140.884 177.062 140 177.062C139.116 177.062 138.268 177.411 137.643 178.033C137.018 178.654 136.667 179.496 136.667 180.375C136.667 181.254 137.018 182.096 137.643 182.717C138.268 183.339 139.116 183.688 140 183.688C140.884 183.688 141.732 183.339 142.357 182.717C142.982 182.096 143.333 181.254 143.333 180.375ZM151.667 140.625H128.333V173.75H151.667V140.625Z" fill="#01123F"/>
<defs>
<linearGradient id="paint0_linear_0_1" x1="-39" y1="23.5" x2="212" y2="23.5" gradientUnits="userSpaceOnUse">
<stop stop-color="#00C9FF"/>
<stop offset="1" stop-color="#2C78FF"/>
</linearGradient>
<linearGradient id="paint1_linear_0_1" x1="-7" y1="212" x2="180" y2="212" gradientUnits="userSpaceOnUse">
<stop stop-color="#00C9FF"/>
<stop offset="1" stop-color="#2C78FF"/>
</linearGradient>
<linearGradient id="paint2_linear_0_1" x1="87" y1="66.125" x2="87" y2="165.875" gradientUnits="userSpaceOnUse">
<stop stop-color="#00C9FF"/>
<stop offset="1" stop-color="#2C78FF"/>
</linearGradient>
</defs>
</svg>
