<?xml version="1.0" encoding="UTF-8" standalone="no"?>
<!-- Created with Inkscape (http://www.inkscape.org/) -->

<svg
   version="1.1"
   id="svg1"
   width="897.01428"
   height="186.66595"
   viewBox="0 0 897.01428 186.66595"
   xmlns="http://www.w3.org/2000/svg"
   xmlns:svg="http://www.w3.org/2000/svg">
  <defs
     id="defs1">
    <clipPath
       clipPathUnits="userSpaceOnUse"
       id="clipPath3">
      <path
         d="M 0,1080 H 1920 V 0 H 0 Z"
         transform="translate(-752.15919,-581.54651)"
         id="path3" />
    </clipPath>
    <clipPath
       clipPathUnits="userSpaceOnUse"
       id="clipPath5">
      <path
         d="M 0,1080 H 1920 V 0 H 0 Z"
         transform="translate(-654.26032,-470.00001)"
         id="path5" />
    </clipPath>
    <clipPath
       clipPathUnits="userSpaceOnUse"
       id="clipPath7">
      <path
         d="M 0,1080 H 1920 V 0 H 0 Z"
         transform="translate(-764.73159,-603.84161)"
         id="path7" />
    </clipPath>
    <clipPath
       clipPathUnits="userSpaceOnUse"
       id="clipPath9">
      <path
         d="M 0,1080 H 1920 V 0 H 0 Z"
         transform="translate(-745.45152,-549.60892)"
         id="path9" />
    </clipPath>
    <clipPath
       clipPathUnits="userSpaceOnUse"
       id="clipPath11">
      <path
         d="M 0,1080 H 1920 V 0 H 0 Z"
         transform="translate(-752.55692,-598.75792)"
         id="path11" />
    </clipPath>
    <clipPath
       clipPathUnits="userSpaceOnUse"
       id="clipPath13">
      <path
         d="M 0,1080 H 1920 V 0 H 0 Z"
         transform="translate(-917.41712,-541.90141)"
         id="path13" />
    </clipPath>
    <clipPath
       clipPathUnits="userSpaceOnUse"
       id="clipPath15">
      <path
         d="M 0,1080 H 1920 V 0 H 0 Z"
         id="path15" />
    </clipPath>
    <clipPath
       clipPathUnits="userSpaceOnUse"
       id="clipPath17">
      <path
         d="M 0,1080 H 1920 V 0 H 0 Z"
         transform="translate(-862.2388,-542.36281)"
         id="path17" />
    </clipPath>
    <clipPath
       clipPathUnits="userSpaceOnUse"
       id="clipPath19">
      <path
         d="M 0,1080 H 1920 V 0 H 0 Z"
         transform="translate(-981.08552,-533.13571)"
         id="path19" />
    </clipPath>
    <clipPath
       clipPathUnits="userSpaceOnUse"
       id="clipPath21">
      <path
         d="M 0,1080 H 1920 V 0 H 0 Z"
         id="path21" />
    </clipPath>
    <clipPath
       clipPathUnits="userSpaceOnUse"
       id="clipPath23">
      <path
         d="M 0,1080 H 1920 V 0 H 0 Z"
         transform="translate(-1093.1028,-542.36281)"
         id="path23" />
    </clipPath>
    <clipPath
       clipPathUnits="userSpaceOnUse"
       id="clipPath25">
      <path
         d="M 0,1080 H 1920 V 0 H 0 Z"
         transform="translate(-1141.1779,-539.31791)"
         id="path25" />
    </clipPath>
    <clipPath
       clipPathUnits="userSpaceOnUse"
       id="clipPath27">
      <path
         d="M 0,1080 H 1920 V 0 H 0 Z"
         transform="translate(-1195.7112,-537.01171)"
         id="path27" />
    </clipPath>
    <clipPath
       clipPathUnits="userSpaceOnUse"
       id="clipPath29">
      <path
         d="M 0,1080 H 1920 V 0 H 0 Z"
         transform="translate(-1224.132,-525.57031)"
         id="path29" />
    </clipPath>
    <clipPath
       clipPathUnits="userSpaceOnUse"
       id="clipPath31">
      <path
         d="M 0,1080 H 1920 V 0 H 0 Z"
         transform="translate(-1284.9391,-542.63962)"
         id="path31" />
    </clipPath>
  </defs>
  <g
     id="g1"
     transform="translate(-831.49219,-626.66736)">
    <path
       id="path2"
       d="m 0,0 c 3.609,6.381 10.3,18.224 13.804,24.427 1.018,1.801 -0.286,4.026 -2.355,4.026 h -44.022 c -10.424,0 -20.041,-5.612 -25.172,-14.683 l -7.27,-12.883 -1.049,-1.857 -42.838,-75.811 h 31.962 57.222 0.129 c 12.387,0 23.598,5.017 31.712,13.131 8.114,8.121 13.131,19.332 13.131,31.712 C 25.254,-16.411 14.476,-3.418 0,0"
       style="fill:#2c78ff;fill-opacity:1;fill-rule:nonzero;stroke:none"
       transform="matrix(1.3333333,0,0,-1.3333333,1002.8789,664.60467)"
       clip-path="url(#clipPath3)" />
    <path
       id="path4"
       d="m 0,0 19.644,34.766 h -30.64 L -30.641,0 Z"
       style="fill:#88e9ff;fill-opacity:1;fill-rule:nonzero;stroke:none"
       transform="matrix(1.3333333,0,0,-1.3333333,872.34707,813.33333)"
       clip-path="url(#clipPath5)" />
    <path
       id="path6"
       d="m 0,0 -12.595,-22.29 31.388,7.442 z"
       style="fill:#ffd05c;fill-opacity:1;fill-rule:nonzero;stroke:none"
       transform="matrix(1.3333333,0,0,-1.3333333,1019.6421,634.87787)"
       clip-path="url(#clipPath7)" />
    <path
       id="path8"
       d="m 0,0 c 0,-12.38 -5.017,-23.591 -13.131,-31.712 -8.114,-8.114 -19.325,-13.131 -31.712,-13.131 h -57.351 l 43.887,77.668 h 25.483 C -14.697,32.825 0,18.134 0,0"
       style="fill:#00c9ff;fill-opacity:1;fill-rule:nonzero;stroke:none"
       transform="matrix(1.3333333,0,0,-1.3333333,993.93533,707.18813)"
       clip-path="url(#clipPath9)" />
    <path
       id="path10"
       d="m 0,0 c 0,-2.451 -1.987,-4.438 -4.438,-4.438 -2.451,0 -4.437,1.987 -4.437,4.438 0,2.451 1.986,4.438 4.437,4.438 C -1.987,4.438 0,2.451 0,0"
       style="fill:#1c172d;fill-opacity:1;fill-rule:nonzero;stroke:none"
       transform="matrix(1.3333333,0,0,-1.3333333,1003.4092,641.65613)"
       clip-path="url(#clipPath11)" />
    <path
       id="path12"
       d="M 0,0 -11.257,25.928 -22.422,0 Z m -16.701,39.399 h 10.98 L 23.344,-25.189 H 10.888 l -6.459,14.947 h -31.28 l -6.459,-14.947 h -12.641 z"
       style="fill:#ffffff;fill-opacity:1;fill-rule:nonzero;stroke:none"
       transform="matrix(1.3333333,0,0,-1.3333333,1223.2228,717.4648)"
       clip-path="url(#clipPath13)" />
    <path
       id="path14"
       d="m 949.529,581.301 h 11.718 v -64.589 h -11.718 z"
       style="fill:#ffffff;fill-opacity:1;fill-rule:nonzero;stroke:none"
       transform="matrix(1.3333333,0,0,-1.3333333,0,1440)"
       clip-path="url(#clipPath15)" />
    <path
       id="path16"
       d="m 0,0 v -25.651 h -11.257 v 25.005 c 0,7.013 -4.614,11.903 -11.349,11.903 -7.105,0 -11.996,-4.613 -11.996,-11.257 V -25.651 H -45.858 V 7.197 c 0,2.307 -1.2,3.876 -3.968,3.876 -1.015,0 -2.86,-0.185 -4.152,-0.554 v 9.135 c 2.491,1.014 4.614,1.291 6.736,1.291 5.075,0 8.858,-2.306 10.518,-5.997 3.784,3.691 9.227,5.997 16.148,5.997 C -8.396,20.945 0,12.364 0,0"
       style="fill:#ffffff;fill-opacity:1;fill-rule:nonzero;stroke:none"
       transform="matrix(1.3333333,0,0,-1.3333333,1149.6517,716.8496)"
       clip-path="url(#clipPath17)" />
    <path
       id="path18"
       d="m 0,0 v 19.838 h -10.611 v 8.951 h 4.152 c 4.429,0 6.459,2.398 6.459,7.75 v 5.905 H 11.257 V 28.789 h 17.07 V 19.838 H 11.257 V 0.369 c 0,-5.259 3.229,-8.304 8.581,-8.304 2.492,0 5.352,0.461 8.489,1.2 v -9.597 c -3.414,-1.015 -6.643,-1.476 -9.688,-1.476 C 7.751,-17.808 0,-11.533 0,0"
       style="fill:#ffffff;fill-opacity:1;fill-rule:nonzero;stroke:none"
       transform="matrix(1.3333333,0,0,-1.3333333,1308.114,729.1524)"
       clip-path="url(#clipPath19)" />
    <path
       id="path20"
       d="m 1018.64,561.924 h 11.257 v -45.212 h -11.257 z m -1.384,15.225 c 0,3.598 3.137,6.458 7.013,6.458 3.783,0 7.012,-2.86 7.012,-6.458 0,-3.599 -3.229,-6.459 -7.012,-6.459 -3.876,0 -7.013,2.86 -7.013,6.459"
       style="fill:#ffffff;fill-opacity:1;fill-rule:nonzero;stroke:none"
       transform="matrix(1.3333333,0,0,-1.3333333,0,1440)"
       clip-path="url(#clipPath21)" />
    <path
       id="path22"
       d="m 0,0 v -25.651 h -11.257 v 25.005 c 0,7.013 -4.614,11.903 -11.349,11.903 -7.105,0 -11.995,-4.613 -11.995,-11.257 V -25.651 H -45.858 V 7.197 c 0,2.307 -1.2,3.876 -3.968,3.876 -1.015,0 -2.86,-0.185 -4.152,-0.554 v 9.135 c 2.491,1.014 4.613,1.291 6.736,1.291 5.075,0 8.858,-2.306 10.518,-5.997 3.784,3.691 9.227,5.997 16.148,5.997 C -8.396,20.945 0,12.364 0,0"
       style="fill:#ffffff;fill-opacity:1;fill-rule:nonzero;stroke:none"
       transform="matrix(1.3333333,0,0,-1.3333333,1457.4703,716.8496)"
       clip-path="url(#clipPath23)" />
    <path
       id="path24"
       d="m 0,0 c 0,8.858 -5.167,14.763 -12.918,14.763 -7.935,0 -13.287,-5.905 -13.287,-14.763 0,-8.858 5.352,-14.763 13.287,-14.763 C -5.167,-14.763 0,-8.858 0,0 m -36.078,-28.05 h 11.442 c 0.923,-5.352 5.628,-8.397 12.364,-8.397 7.382,0 12.272,4.799 12.272,12.088 v 5.443 c -3.691,-3.414 -8.95,-5.074 -13.564,-5.074 -14.117,0 -23.897,9.873 -23.897,23.99 0,14.118 9.78,23.99 23.897,23.99 4.706,0 9.873,-1.66 13.564,-5.074 v 3.69 h 11.257 v -46.965 c 0,-13.102 -9.412,-21.776 -23.529,-21.776 -12.364,0 -22.606,6.736 -23.806,18.085"
       style="fill:#ffffff;fill-opacity:1;fill-rule:nonzero;stroke:none"
       transform="matrix(1.3333333,0,0,-1.3333333,1521.5705,720.90947)"
       clip-path="url(#clipPath25)" />
    <path
       id="path26"
       d="m 0,0 -14.855,-2.03 c -4.614,-0.646 -7.013,-2.676 -7.013,-5.536 0,-3.138 3.137,-5.352 7.843,-5.352 C -5.167,-12.918 0,-8.489 0,-1.569 Z M 19.838,-10.796 V -20.3 c -2.768,-1.014 -4.983,-1.384 -7.197,-1.384 -5.26,0 -8.858,2.214 -10.611,5.997 -4.337,-4.152 -10.335,-5.997 -16.148,-5.997 -10.98,0 -18.546,5.537 -18.546,13.471 0,6.644 4.429,11.996 15.778,13.656 L -4.152,7.289 C -1.384,7.658 0,9.042 0,11.349 c 0,3.506 -3.875,5.905 -9.596,5.905 -5.998,0 -9.781,-3.045 -9.781,-7.751 H -30.08 c 0,9.781 8.396,16.793 20.484,16.793 12.825,0 20.761,-6.643 20.761,-16.516 V -7.936 c 0,-2.584 1.291,-3.875 3.875,-3.875 1.476,0 2.676,0.277 4.798,1.015"
       style="fill:#ffffff;fill-opacity:1;fill-rule:nonzero;stroke:none"
       transform="matrix(1.3333333,0,0,-1.3333333,1594.2815,723.9844)"
       clip-path="url(#clipPath27)" />
    <path
       id="path28"
       d="M 0,0 V 57.576 H 11.257 V 3.506 c 0,-2.676 1.384,-3.875 3.875,-3.875 1.384,0 3.045,0.369 4.798,1.015 V -8.858 C 17.254,-9.873 15.132,-10.242 12.641,-10.242 5.075,-10.242 0,-6.183 0,0"
       style="fill:#ffffff;fill-opacity:1;fill-rule:nonzero;stroke:none"
       transform="matrix(1.3333333,0,0,-1.3333333,1632.176,739.2396)"
       clip-path="url(#clipPath29)" />
    <path
       id="path30"
       d="M 0,0 C -0.092,6.736 -4.614,11.626 -11.534,11.626 -18.546,11.626 -23.806,6.828 -24.636,0 Z m -35.708,-3.322 c 0,14.394 9.595,23.99 23.897,23.99 13.933,0 23.252,-9.411 23.252,-23.621 0,-1.66 0,-3.229 -0.276,-4.983 h -35.524 c 1.66,-6.181 6.827,-10.334 13.471,-10.334 4.706,0 7.935,1.753 9.411,4.337 h 11.996 c -3.322,-9.226 -12.088,-13.379 -21.684,-13.379 -14.763,0 -24.543,9.596 -24.543,23.99"
       style="fill:#ffffff;fill-opacity:1;fill-rule:nonzero;stroke:none"
       transform="matrix(1.3333333,0,0,-1.3333333,1713.2521,716.48053)"
       clip-path="url(#clipPath31)" />
  </g>
</svg>
