<svg width="74" height="74" viewBox="0 0 74 74" fill="none" xmlns="http://www.w3.org/2000/svg" xmlns:xlink="http://www.w3.org/1999/xlink">
<mask id="mask0_0_1" style="mask-type:luminance" maskUnits="userSpaceOnUse" x="0" y="0" width="74" height="74">
<path d="M63.8807 0H9.71148C4.34798 0 0 4.34798 0 9.71148V63.8807C0 69.2442 4.34798 73.5922 9.71148 73.5922H63.8807C69.2442 73.5922 73.5922 69.2442 73.5922 63.8807V9.71148C73.5922 4.34798 69.2442 0 63.8807 0Z" fill="white"/>
</mask>
<g mask="url(#mask0_0_1)">
<mask id="mask1_0_1" style="mask-type:luminance" maskUnits="userSpaceOnUse" x="-2" y="-2" width="78" height="78">
<path d="M75.3264 -1.73419H-1.73419V75.3264H75.3264V-1.73419Z" fill="white"/>
</mask>
<g mask="url(#mask1_0_1)">
<rect x="-1.77234" y="-1.7793" width="77.2479" height="77.2479" fill="url(#pattern0_0_1)"/>
</g>
</g>
<path d="M53.6385 22.3849C54.8906 20.1721 57.211 16.0655 58.4249 13.9117C58.7787 13.2874 58.3243 12.5139 57.6064 12.5139H42.3386C38.7245 12.5139 35.3879 14.4597 33.6086 17.6055L31.0871 22.0728L30.7229 22.7179L15.8644 49.0117H46.8405C51.1378 49.0117 55.0259 47.2706 57.8388 44.4577C60.6516 41.6414 62.3928 37.7533 62.3928 33.4595C62.3928 28.0731 58.6538 23.5677 53.6351 22.3815L53.6385 22.3849Z" fill="#2C78FF"/>
<path d="M19.6831 61.0748L26.4985 49.0152H15.8713L9.05597 61.0748H19.6831Z" fill="#6CE0FF"/>
<path d="M57.9983 14.6539L53.6317 22.385L64.5189 19.801L57.9983 14.6539Z" fill="#FFD05C"/>
<path d="M51.3113 33.463C51.3113 37.7569 49.5701 41.6449 46.7573 44.4612C43.9444 47.2741 40.0564 49.0152 35.759 49.0152H15.8679L31.0906 22.0763H39.928C46.2162 22.0763 51.3113 27.1714 51.3113 33.4595V33.463Z" fill="#36CBFF"/>
<path d="M52.2374 17.9558C53.0878 17.9558 53.7773 17.2664 53.7773 16.4159C53.7773 15.5654 53.0878 14.8759 52.2374 14.8759C51.3869 14.8759 50.6974 15.5654 50.6974 16.4159C50.6974 17.2664 51.3869 17.9558 52.2374 17.9558Z" fill="#1C172D"/>
<defs>
<pattern id="pattern0_0_1" patternContentUnits="objectBoundingBox" width="1" height="1">
<use xlink:href="#image0_0_1" transform="scale(0.00215517)"/>
</pattern>
</defs>
</svg>
